<svg aria-hidden="true" style="position: absolute; width: 0; height: 0; overflow: hidden;" version="1.1" xmlns="http://www.w3.org/2000/svg" xmlns:xlink="http://www.w3.org/1999/xlink">
<defs>
<symbol id="client-1" viewBox="0 0 32 32">
<path d="M9.392 2.965c3.618 0 6.551 2.933 6.551 6.551v-6.551h6.551c3.618 0 6.551 2.933 6.551 6.551s-2.933 6.551-6.551 6.551c3.618 0 6.551 2.933 6.551 6.551 0 1.797-0.723 3.424-1.894 4.608l-0.024 0.025-0.022 0.022c-1.184 1.173-2.813 1.897-4.611 1.897-1.786 0-3.405-0.715-4.587-1.873-0.015-0.015-0.031-0.030-0.046-0.045s-0.029-0.029-0.043-0.043c-1.16-1.182-1.876-2.802-1.876-4.589 0 3.618-2.933 6.551-6.551 6.551s-6.551-2.933-6.551-6.551v-6.551h6.551c-3.618 0-6.551-2.933-6.551-6.551s2.933-6.551 6.551-6.551zM14.633 9.516c0 2.894-2.347 5.241-5.241 5.241v-10.482c2.895 0 5.241 2.346 5.241 5.241zM27.736 22.618c0-2.895-2.347-5.241-5.241-5.241s-5.241 2.346-5.241 5.241h10.482zM4.151 17.377v5.241c0 2.895 2.346 5.241 5.241 5.241s5.241-2.346 5.241-5.241v-5.241h-10.482zM17.253 14.757v-10.482h5.241c2.895 0 5.241 2.346 5.241 5.241s-2.347 5.241-5.241 5.241h-5.241z"></path>
</symbol>
<symbol id="client-2" viewBox="0 0 32 32">
<path fill="#3b4158" style="fill: var(--color1, #3b4158)" d="M9.455 9.491c0.003-0.003 0.006-0.006 0.009-0.009 3.618-3.582 9.484-3.582 13.102 0 0.005 0.005 0.010 0.010 0.015 0.014l6.537 6.471c-1.309 1.295-2.803 2.387-4.433 3.241-0.45 1.183-1.157 2.292-2.118 3.244-3.618 3.582-9.484 3.582-13.102 0-0.962-0.952-1.668-2.061-2.118-3.244-1.63-0.854-3.124-1.946-4.433-3.241l6.542-6.476zM21.941 20.376c-1.906 0.637-3.908 0.963-5.925 0.963s-4.019-0.326-5.925-0.963c0.207 0.271 0.435 0.532 0.684 0.779 2.895 2.866 7.587 2.866 10.482 0 0.25-0.247 0.478-0.507 0.684-0.779zM10.909 10.649c0.492 0.322 1.014 0.597 1.561 0.821 1.124 0.461 2.329 0.698 3.545 0.698s2.421-0.237 3.546-0.698c0.547-0.224 1.070-0.499 1.561-0.821-2.858-2.692-7.355-2.692-10.213 0z"></path>
</symbol>
<symbol id="client-3" viewBox="0 0 37 32">
<path fill="#000" style="fill: var(--color2, #000)" d="M36.311 13.13c0.004-0.027 0.004-0.055 0-0.082 0.004-0.022 0.004-0.045 0-0.067l-0.267-1.921c-0.038-0.23-0.142-0.445-0.297-0.62l-0.046-0.052-0.084-0.082-4.621-3.902 0.13 0.127c-0.106-0.124-0.239-0.224-0.39-0.291s-0.314-0.101-0.48-0.098h-1.403c-0.228-0.004-0.451 0.067-0.633 0.202-0.191-0.134-0.421-0.205-0.656-0.202h-1.403c-0.184-0.003-0.365 0.042-0.526 0.13s-0.295 0.216-0.389 0.371c-0.145 0.222-0.199 0.488-0.152 0.748l0.175 1.211c-0.116-0.065-0.248-0.098-0.381-0.097h-6.794c-0.244 0.002-0.482 0.072-0.686 0.202-0.198 0.121-0.356 0.295-0.457 0.501l-0.526-0.441c-0.207-0.188-0.48-0.29-0.763-0.284h-10.66c-0.245 0.004-0.484 0.071-0.694 0.194-0.287 0.165-0.498 0.433-0.587 0.748l-3.386 11.101c-0.063 0.183-0.069 0.38-0.018 0.567s0.159 0.354 0.308 0.48c0.039 0.032 0.080 0.062 0.122 0.090 0 0-0.069-0.045-0.107-0.082l4.621 3.91c0.195 0.176 0.451 0.275 0.717 0.277h10.744c0.245-0.006 0.485-0.076 0.694-0.202 0.118-0.063 0.224-0.147 0.313-0.247l0.038-0.052 0.061-0.075 0.046-0.082 0.503 0.426c0.193 0.169 0.443 0.263 0.701 0.262h10.767c0.245-0.008 0.484-0.077 0.694-0.202 0.116-0.067 0.221-0.15 0.313-0.247l0.038-0.052 0.061-0.075c0.032-0.047 0.061-0.097 0.084-0.15 0.025-0.045 0.045-0.093 0.061-0.142l3.088-10.137v-0.090c0.004-0.035 0.004-0.070 0-0.105v-0.067c0.004-0.022 0.004-0.045 0-0.067 0.003-0.047 0.003-0.095 0-0.142h0.991c0.086 0.008 0.173 0.008 0.259 0h0.069c0.056-0.016 0.109-0.039 0.16-0.067h0.076l0.137-0.105 0.061-0.045 0.107-0.135v-0.045l0.076-0.127c-0.004-0.025-0.004-0.050 0-0.075-0.004-0.012-0.004-0.025 0-0.037 0.016-0.044 0.029-0.089 0.038-0.135-0.004-0.015-0.004-0.030 0-0.045-0.004-0.022-0.004-0.045 0-0.067 0 0 0.153-0.292 0.153-0.307z"></path>
<path fill="#fff" style="fill: var(--color3, #fff)" d="M15.974 9.332c0.041 0.036 0.069 0.083 0.081 0.135s0.008 0.107-0.012 0.156l-3.378 11.094c-0.043 0.121-0.13 0.222-0.244 0.284-0.093 0.061-0.201 0.097-0.313 0.105h-10.736c-0.092-0.004-0.179-0.042-0.244-0.105-0.039-0.035-0.066-0.081-0.079-0.132s-0.009-0.104 0.010-0.152l3.386-11.094c0.039-0.123 0.123-0.227 0.236-0.291 0.095-0.057 0.202-0.090 0.313-0.097h10.737c0.091 0.001 0.178 0.036 0.244 0.097zM10.369 18.482l2.021-6.623h-5.658l-2.013 6.623h5.65zM26.223 9.444c0.037 0.042 0.082 0.075 0.134 0.097s0.107 0.032 0.163 0.030h1.395c0.053 0.001 0.105-0.012 0.152-0.037s0.086-0.061 0.115-0.105c0.025-0.034 0.042-0.073 0.051-0.114s0.010-0.084 0.002-0.125l-0.275-1.974c-0.026-0.091-0.073-0.176-0.137-0.247-0.037-0.042-0.082-0.075-0.134-0.097s-0.107-0.032-0.163-0.030h-1.395c-0.053-0-0.106 0.012-0.152 0.037s-0.086 0.061-0.115 0.105c-0.053 0.105-0.076 0.172-0.053 0.232l0.282 1.974c0.014 0.096 0.060 0.185 0.13 0.254zM30.653 7.202c-0.026-0.091-0.073-0.176-0.137-0.247-0.035-0.042-0.080-0.075-0.13-0.097s-0.105-0.032-0.16-0.030h-1.403c-0.052-0.001-0.104 0.011-0.15 0.036s-0.083 0.062-0.11 0.106c-0.051 0.066-0.073 0.15-0.061 0.232l0.282 1.974c0.018 0.095 0.063 0.183 0.13 0.254 0.037 0.041 0.083 0.073 0.134 0.095s0.107 0.033 0.163 0.032h1.403c0.052 0.001 0.104-0.012 0.149-0.037s0.084-0.061 0.11-0.105c0.027-0.033 0.045-0.072 0.054-0.114s0.009-0.084-0.001-0.126l-0.275-1.974zM24.995 10.192l-0.137-0.972h-6.764c-0.106 0.006-0.209 0.039-0.297 0.097-0.056 0.030-0.105 0.072-0.143 0.122s-0.065 0.108-0.078 0.17l-0.564 1.854c-0.023 0.046-0.030 0.098-0.022 0.149s0.032 0.098 0.068 0.135c0.064 0.059 0.148 0.094 0.236 0.097h8.22l-2.021 6.623h-8.197c-0.106 0.002-0.209 0.033-0.297 0.090-0.108 0.067-0.187 0.171-0.221 0.292l-0.572 1.854c-0.019 0.048-0.024 0.099-0.014 0.149s0.033 0.097 0.067 0.135c0.062 0.063 0.147 0.101 0.236 0.105h10.767c0.111-0.009 0.219-0.045 0.313-0.105 0.113-0.062 0.197-0.163 0.236-0.284l3.096-10.137h-3.485c-0.055 0.001-0.11-0.009-0.161-0.030s-0.097-0.051-0.136-0.090c-0.063-0.068-0.108-0.15-0.13-0.239v-0.015z"></path>
</symbol>
<symbol id="client-4" viewBox="0 0 32 32">
<path fill="#3a3b7b" style="fill: var(--color4, #3a3b7b)" d="M29.915 9.13c0 0.022 0 0.050-0.006 0.066-0.029 0.216-0.029 0.432-0.012 0.654 0.012 0.055 0.023 0.111 0.069 0.155 0.075 0.083 0.19 0.066 0.237-0.033 0.023-0.050 0.023-0.1 0.011-0.15-0.058-0.21-0.069-0.432-0.075-0.648 0-0.011 0-0.028 0-0.044 0.064-0.006 0.121-0.011 0.173-0.011 0.040-0.006 0.075-0.011 0.104-0.028 0.087-0.044 0.087-0.138-0.006-0.183-0.035-0.017-0.081-0.022-0.121-0.022-0.144 0.006-0.288 0.006-0.433 0.006-0.052 0-0.104 0.006-0.156 0.011-0.029 0.006-0.064 0.006-0.087 0.022-0.040 0.017-0.063 0.044-0.063 0.083 0.006 0.039 0.023 0.061 0.063 0.078 0.023 0.017 0.052 0.022 0.081 0.022 0.069 0.006 0.144 0.017 0.219 0.022zM31.502 9.385c0 0.006 0.006 0.011 0.006 0.011 0.023 0.149 0.046 0.293 0.064 0.438 0.006 0.050 0.011 0.094 0.046 0.133 0.075 0.094 0.19 0.083 0.242-0.017 0.023-0.050 0.029-0.1 0.017-0.155-0.035-0.166-0.052-0.332-0.087-0.493-0.023-0.1-0.052-0.194-0.081-0.282-0.017-0.055-0.058-0.094-0.127-0.1-0.069-0.011-0.121 0.022-0.15 0.072-0.035 0.044-0.063 0.089-0.087 0.138-0.040 0.089-0.075 0.177-0.121 0.26-0.006 0.022-0.012 0.039-0.023 0.055-0.006-0.011-0.011-0.017-0.011-0.017-0.075-0.138-0.144-0.277-0.219-0.41-0.012-0.011-0.017-0.022-0.023-0.033-0.035-0.050-0.075-0.078-0.138-0.078-0.058 0.006-0.104 0.039-0.133 0.089-0.012 0.022-0.012 0.039-0.017 0.061-0.023 0.177-0.052 0.354-0.075 0.532-0.012 0.1-0.017 0.199-0.017 0.299-0.006 0.022 0 0.050 0.011 0.072 0.012 0.044 0.046 0.072 0.092 0.077 0.058 0.006 0.098-0.011 0.115-0.055 0.017-0.033 0.023-0.061 0.029-0.089 0.023-0.1 0.040-0.194 0.058-0.288 0.011-0.055 0.017-0.1 0.035-0.161 0.012 0.022 0.023 0.039 0.035 0.055 0.052 0.066 0.104 0.133 0.167 0.188 0.063 0.044 0.115 0.039 0.167-0.011 0.012-0.011 0.017-0.017 0.029-0.028 0.052-0.077 0.115-0.155 0.167-0.233 0.012-0.011 0.017-0.022 0.029-0.033z"></path>
<path fill="#3a3b7b" style="fill: var(--color4, #3a3b7b)" d="M18.207 9.239c-0.040 0.105-0.048 0.181-0.029 0.244 0.020 0.086 0.073 0.114 0.145 0.092 0.678-0.161 2.164 0.296 2.714 0.423 0.13 0.027 0.235-0.134 0.147-0.278-0.129-0.14-1.615-0.737-2.182-0.77-0.222-0.012-0.619-0.067-0.796 0.289z"></path>
<path fill="#3a3b7b" style="fill: var(--color4, #3a3b7b)" d="M24.015 7.304c0.072 0.040 0.113 0.078 0.133 0.121 0.030 0.056 0.014 0.095-0.036 0.114-0.448 0.21-1.044 1.113-1.285 1.425-0.058 0.072-0.193 0.030-0.213-0.088 0.004-0.133 0.533-1.114 0.828-1.381 0.116-0.104 0.307-0.309 0.574-0.192z"></path>
<path fill="#3a3b7b" style="fill: var(--color4, #3a3b7b)" d="M20.447 6.86c0.087-0.063 0.177-0.085 0.223-0.044 0.676 0.555 1.034 1.433 1.256 2.238 0.008 0.019 0.009 0.046 0.002 0.074-0.003 0.024-0.021 0.049-0.050 0.069-0.031 0.022-0.058 0.028-0.070 0.010-0.296-0.387-1.988-1.891-1.361-2.346z"></path>
<path fill="#3a3b7b" style="fill: var(--color4, #3a3b7b)" d="M6.133 16.479c0.162-0.116 0.338-0.212 0.524-0.287 0.195-0.053 0.403-0.045 0.592 0.025s0.35 0.197 0.457 0.362c0.096 0.165 0.133 0.355 0.107 0.542s-0.116 0.361-0.254 0.495c-0.107 0.109-0.229 0.204-0.362 0.282-0.593 0.368-1.191 0.715-1.789 1.082-0.122 0.092-0.252 0.174-0.388 0.247-0.207 0.099-0.443 0.126-0.668 0.075s-0.425-0.175-0.564-0.352c-0.104-0.125-0.192-0.262-0.262-0.408-0.566-1.143-1.154-2.28-1.699-3.443-0.252-0.503-0.456-1.082-0.656-1.641-0.086-0.162-0.103-0.351-0.047-0.525s0.181-0.32 0.348-0.408c0.167-0.087 0.362-0.109 0.545-0.059s0.339 0.165 0.434 0.322c0.293 0.374 0.553 0.772 0.776 1.188 0.566 1.007 1.107 2.014 1.652 2.99 0.032 0.054 0.067 0.106 0.105 0.156 0.411-0.166 0.797-0.382 1.149-0.644z"></path>
<path fill="#3a3b7b" style="fill: var(--color4, #3a3b7b)" d="M11.99 16.128c-1.296 1.455-3.467 1.087-4.558-0.785-0.776-1.329-0.913-3.524 0.776-4.908 0.361-0.29 0.792-0.487 1.254-0.574 0.566-0.078 1.143 0.018 1.649 0.274s0.915 0.659 1.168 1.151c0.923 1.611 0.792 3.665-0.289 4.843zM11.466 12.735c-0.138-0.396-0.414-0.734-0.781-0.957-0.208-0.142-0.461-0.212-0.716-0.196s-0.497 0.115-0.684 0.282c-0.75 0.639-0.907 2.155-0.362 3.056 0.070 0.147 0.172 0.277 0.299 0.383s0.278 0.182 0.44 0.226 0.332 0.053 0.498 0.027c0.166-0.026 0.324-0.086 0.463-0.177 0.407-0.303 0.705-0.719 0.853-1.192s0.14-0.978-0.025-1.446l0.016-0.005z"></path>
<path fill="#3a3b7b" style="fill: var(--color4, #3a3b7b)" d="M17.277 13.369c-0.133 0.027-0.27 0.029-0.403 0.005s-0.26-0.074-0.373-0.146c-0.099-0.054-0.184-0.129-0.249-0.219s-0.109-0.192-0.128-0.3c-0.019-0.108-0.013-0.218 0.018-0.324s0.086-0.203 0.16-0.285c0.13-0.166 0.315-0.285 0.524-0.337 0.547-0.152 1.11-0.245 1.678-0.277 0.125-0.014 0.251-0.004 0.372 0.030s0.233 0.090 0.331 0.166c0.098 0.076 0.179 0.17 0.238 0.276s0.096 0.223 0.108 0.343c0.164 0.59 0.182 1.209 0.052 1.807-0.472 1.933-2.098 2.598-3.923 1.978-0.512-0.166-0.962-0.474-1.29-0.886-0.438-0.496-0.749-1.084-0.907-1.717-0.128-0.563-0.114-1.148 0.041-1.705s0.447-1.070 0.851-1.497c0.383-0.464 0.881-0.829 1.448-1.062 0.358-0.19 0.777-0.243 1.175-0.151 0.090 0.024 0.172 0.071 0.237 0.135s0.111 0.145 0.133 0.232c0.022 0.087 0.019 0.179-0.008 0.265s-0.078 0.163-0.147 0.224c-0.131 0.114-0.273 0.215-0.425 0.302-0.466 0.285-0.872 0.652-1.196 1.082-0.212 0.278-0.358 0.598-0.428 0.936s-0.062 0.687 0.024 1.022c0.119 0.457 0.383 0.867 0.755 1.173 1.154 1.007 2.654 0.035 2.392-1.339-0.383 0.091-0.719 0.186-1.059 0.267z"></path>
<path fill="#3a3b7b" style="fill: var(--color4, #3a3b7b)" d="M24.327 16.208c-1.705 1.007-3.645 0-4.070-2.114-0.309-1.51 0.278-3.625 2.334-4.43 0.437-0.168 0.912-0.227 1.379-0.171 0.562 0.099 1.077 0.364 1.473 0.759s0.653 0.899 0.735 1.441c0.346 1.797-0.441 3.715-1.851 4.515zM24.919 12.82c-0-0.418-0.155-0.823-0.435-1.143-0.15-0.198-0.367-0.34-0.614-0.401s-0.508-0.039-0.74 0.064c-0.923 0.383-1.573 1.772-1.337 2.794 0.018 0.16 0.072 0.315 0.159 0.453s0.204 0.256 0.343 0.347c0.139 0.090 0.297 0.15 0.464 0.175s0.336 0.016 0.497-0.029c0.488-0.164 0.91-0.469 1.208-0.875s0.457-0.89 0.454-1.386z"></path>
<path fill="#3a3b7b" style="fill: var(--color4, #3a3b7b)" d="M27.902 16.631c-0.026 0.184-0.127 0.351-0.281 0.464s-0.348 0.162-0.54 0.138c-0.192-0.025-0.366-0.122-0.483-0.269s-0.169-0.334-0.143-0.518c0.026-0.184 0.127-0.351 0.281-0.464s0.348-0.162 0.54-0.138c0.192 0.025 0.366 0.121 0.483 0.269s0.169 0.334 0.143 0.518zM27.446 9.84c0.1-0.146 0.246-0.258 0.417-0.317s0.358-0.065 0.532-0.015c0.177 0.043 0.334 0.142 0.444 0.283s0.166 0.312 0.159 0.488c-0.023 0.281-0.067 0.56-0.131 0.836-0.173 0.931-0.341 1.863-0.525 2.784-0.084 0.368-0.194 0.72-0.315 1.092-0.042 0.117-0.112 0.222-0.205 0.307-0.058 0.064-0.131 0.114-0.214 0.143s-0.172 0.039-0.259 0.027-0.17-0.045-0.241-0.096c-0.070-0.051-0.127-0.118-0.163-0.195-0.062-0.138-0.096-0.287-0.1-0.438 0-0.624 0-1.253 0.042-1.883 0.071-0.898 0.211-1.79 0.42-2.668 0.024-0.118 0.071-0.23 0.136-0.332v-0.015z"></path>
<path fill="#3a3b7b" style="fill: var(--color4, #3a3b7b)" d="M3.917 20.676c-0.062 0.133-0.079 0.281-0.049 0.423 0.020 0.188 0.064 0.372 0.132 0.55 0.084 0.217 0.178 0.432 0.294 0.696 0.027 0.061 0.055 0.124 0.084 0.191 0.156 0.358 0.353 0.817 0.614 1.48 0.074 0.188 0.14 0.378 0.206 0.57 0.027 0.077 0.054 0.155 0.081 0.232 0.098 0.276 0.268 0.524 0.493 0.721 0.095 0.108 0.222 0.187 0.364 0.226 0.145 0.040 0.299 0.038 0.442-0.007s0.269-0.13 0.361-0.245c0.090-0.112 0.144-0.248 0.154-0.389 0.059-0.275 0.039-0.561-0.058-0.826-0.153-0.441-0.327-0.882-0.528-1.313l-0.001-0.002c-0.331-0.675-0.667-1.346-1.019-2.016l-0.003-0.005c-0.103-0.175-0.237-0.331-0.396-0.462-0.103-0.117-0.245-0.195-0.402-0.222-0.16-0.028-0.326 0-0.467 0.079-0.133 0.073-0.239 0.185-0.302 0.319z"></path>
<path fill="#3a3b7b" style="fill: var(--color4, #3a3b7b)" d="M8.968 19.014c-0.518-0.129-1.060-0.148-1.587-0.055-0.408 0.039-0.809 0.129-1.088 0.308-0.142 0.091-0.256 0.208-0.32 0.357s-0.072 0.32-0.020 0.511c0.096 0.349 0.22 0.688 0.345 1.026l0.020 0.055 0 0.001c0.374 0.982 0.751 1.961 1.131 2.936 0.044 0.154 0.107 0.302 0.187 0.442l0.002 0.003c0.106 0.174 0.241 0.329 0.4 0.46 0.080 0.072 0.178 0.121 0.285 0.144 0.108 0.022 0.22 0.016 0.325-0.019s0.197-0.096 0.267-0.178c0.069-0.080 0.115-0.177 0.131-0.28 0.069-0.28 0.047-0.573-0.063-0.841-0.034-0.090-0.061-0.182-0.090-0.279-0.009-0.032-0.019-0.065-0.029-0.099 0.871-0.327 1.798-0.766 2.124-1.789 0.128-0.353 0.138-0.736 0.030-1.095s-0.329-0.679-0.634-0.913c-0.414-0.328-0.898-0.565-1.418-0.694zM7.531 20.268c0.017-0.005 0.034-0.009 0.052-0.013 0.567-0.086 1.148 0.028 1.634 0.321 0.214 0.143 0.302 0.302 0.317 0.455 0.016 0.158-0.044 0.328-0.164 0.492-0.227 0.31-0.64 0.558-1.014 0.604-0.272-0.602-0.549-1.228-0.826-1.86z"></path>
<path fill="#3a3b7b" style="fill: var(--color4, #3a3b7b)" d="M12.425 17.912c0.617-0.274 1.382-0.321 1.981-0.129 0.151 0.042 0.281 0.133 0.37 0.258s0.128 0.273 0.115 0.422c-0.001 0.097-0.026 0.192-0.072 0.278-0.047 0.087-0.116 0.163-0.2 0.219s-0.181 0.093-0.283 0.106-0.205 0.002-0.302-0.031l-0.007-0.003-0.007-0.003c-0.049-0.025-0.102-0.044-0.156-0.056l-0.003-0.001c-0.421-0.107-0.818 0.070-0.963 0.289-0.069 0.104-0.078 0.209-0.020 0.305 0.062 0.102 0.213 0.218 0.519 0.299 0.084 0.022 0.171 0.044 0.258 0.065 0.242 0.060 0.494 0.123 0.737 0.209l0.001 0c1.123 0.41 1.541 1.259 1.398 2.058-0.142 0.79-0.829 1.509-1.863 1.678-0.376 0.080-0.767 0.064-1.135-0.045s-0.701-0.311-0.964-0.582l-0.007-0.007c-0.083-0.102-0.139-0.223-0.164-0.35-0.023-0.115-0.011-0.234 0.035-0.343s0.121-0.202 0.219-0.27c0.104-0.077 0.229-0.124 0.36-0.133s0.261 0.018 0.376 0.078c0.115 0.053 0.221 0.121 0.317 0.201l0.002 0.002c0.169 0.148 0.374 0.187 0.57 0.151 0.199-0.036 0.386-0.149 0.507-0.299s0.168-0.326 0.111-0.498c-0.057-0.173-0.23-0.367-0.609-0.529-0.099-0.040-0.202-0.073-0.309-0.105-0.029-0.009-0.058-0.017-0.088-0.026-0.079-0.023-0.16-0.047-0.24-0.073-0.055-0.018-0.109-0.035-0.163-0.052-0.147-0.046-0.291-0.091-0.429-0.151-0.301-0.098-0.561-0.287-0.741-0.539-0.181-0.252-0.272-0.554-0.26-0.861 0.001-0.746 0.491-1.26 1.112-1.536z"></path>
<path fill="#3a3b7b" style="fill: var(--color4, #3a3b7b)" d="M20.254 17.833c-0.12-0.056-0.252-0.083-0.385-0.078s-0.263 0.042-0.377 0.108c-0.114 0.065-0.209 0.156-0.277 0.265-0.063 0.092-0.106 0.194-0.128 0.302s-0.021 0.218 0.002 0.325c0.022 0.138 0.047 0.272 0.071 0.404 0.040 0.219 0.080 0.433 0.106 0.651l0.001 0.006c0.059 0.342 0.090 0.688 0.093 1.035l0 0.005c0.020 0.375-0.113 0.742-0.37 1.024l-0.004 0.005c-0.084 0.103-0.196 0.182-0.324 0.227s-0.266 0.056-0.4 0.030c-0.134-0.026-0.257-0.087-0.357-0.176s-0.171-0.204-0.207-0.33c-0.077-0.266-0.121-0.539-0.132-0.815l0.131-1.998c0.002-0.026 0.004-0.053 0.006-0.080 0.005-0.061 0.010-0.122 0.012-0.18 0.003-0.085 0-0.172-0.020-0.255-0.021-0.084-0.061-0.165-0.132-0.233s-0.165-0.118-0.285-0.152c-0.216-0.060-0.399-0.058-0.551 0.004s-0.257 0.177-0.331 0.31c-0.073 0.132-0.12 0.288-0.156 0.445-0.026 0.116-0.048 0.238-0.068 0.354-0.007 0.040-0.014 0.079-0.021 0.117l-0 0.001c-0.108 0.636-0.14 1.282-0.096 1.926 0.008 0.348 0.084 0.691 0.223 1.012 0.157 0.414 0.441 0.773 0.815 1.030s0.821 0.398 1.282 0.406c0.46 0.008 0.912-0.119 1.295-0.364s0.679-0.594 0.851-1.003c0.24-0.521 0.352-1.088 0.329-1.658-0.014-0.416-0.038-0.835-0.061-1.251-0.011-0.205-0.023-0.408-0.033-0.611-0.005-0.203-0.075-0.4-0.2-0.564-0.077-0.104-0.181-0.187-0.3-0.243z"></path>
<path fill="#3a3b7b" style="fill: var(--color4, #3a3b7b)" d="M24.491 20.965c-0.012 0.015-0.025 0.030-0.038 0.046-0.097-0.539-0.188-1.078-0.278-1.618-0.032-0.194-0.065-0.388-0.098-0.582l-0.004-0.022-0.012-0.019c-0.023-0.035-0.025-0.070-0.025-0.143v-0.008l-0.001-0.008c-0.024-0.152-0.096-0.293-0.205-0.406s-0.251-0.19-0.407-0.224c-0.156-0.037-0.319-0.029-0.47 0.023s-0.282 0.145-0.377 0.268c-0.079 0.095-0.144 0.199-0.193 0.311-0.111 0.241-0.222 0.483-0.334 0.725l-0.002 0.004c-0.279 0.605-0.561 1.214-0.834 1.828l-0.001 0.002c-0.168 0.398-0.306 0.817-0.444 1.236-0.028 0.083-0.055 0.167-0.083 0.25-0.050 0.132-0.072 0.272-0.064 0.412-0.009 0.125 0.022 0.251 0.090 0.358 0.069 0.11 0.172 0.197 0.295 0.248 0.13 0.055 0.276 0.066 0.413 0.033s0.26-0.109 0.347-0.216c0.112-0.132 0.208-0.276 0.286-0.428 0.231-0.454 0.452-0.914 0.672-1.371 0.085-0.177 0.168-0.336 0.262-0.508 0.006 0.021 0.013 0.042 0.020 0.063 0.099 0.417 0.265 0.816 0.493 1.183 0.043 0.078 0.103 0.146 0.176 0.199s0.159 0.092 0.25 0.111c0.091 0.019 0.185 0.019 0.276 0s0.176-0.057 0.25-0.111l0.146-0.105 1.136-0.918-0.067 0.411c-0.092 0.565-0.184 1.125-0.281 1.685-0.064 0.248-0.064 0.508 0 0.756 0.028 0.14 0.098 0.268 0.202 0.369s0.24 0.171 0.386 0.199c0.147 0.028 0.298 0.012 0.436-0.044 0.135-0.055 0.251-0.148 0.331-0.266 0.187-0.223 0.304-0.493 0.336-0.778 0.048-0.402 0.103-0.81 0.157-1.218 0.063-0.47 0.126-0.94 0.179-1.4l0-0.001c0.051-0.504 0.076-1.011 0.074-1.517 0.011-0.16-0.030-0.32-0.119-0.456s-0.22-0.243-0.376-0.304c-0.162-0.070-0.343-0.089-0.516-0.054-0.173 0.035-0.329 0.123-0.446 0.249-0.209 0.186-0.406 0.385-0.588 0.596l-0.001 0.001c-0.199 0.238-0.397 0.481-0.593 0.722-0.119 0.147-0.238 0.293-0.357 0.437z"></path>
</symbol>
<symbol id="client-5" viewBox="0 0 32 32">
<path d="M28.311 8.003c0 0.305 0.25 0.553 0.56 0.553h0.56c0.309 0 0.56-0.247 0.56-0.553s-0.25-0.553-0.56-0.553h-0.56c-0.309 0-0.56 0.247-0.56 0.553z"></path>
<path d="M12.083 25.138h2.718l-0.791-0.782c-0.21-0.207-0.495-0.324-0.791-0.324h-1.136c-4.327 0-7.834-3.465-7.834-7.739s3.507-7.739 7.834-7.739h8.953c4.327 0 7.834 3.465 7.834 7.739s-3.507 7.739-7.834 7.739h-3.349c-0.445 0-0.872-0.175-1.187-0.486l-0.927-0.916c-0.525-0.518-1.236-0.809-1.978-0.809h-1.511c-3.091 0-5.596-2.475-5.596-5.528s2.505-5.528 5.596-5.528h8.953c3.091 0 5.596 2.475 5.596 5.528s-2.505 5.528-5.596 5.528h-2.151c-0.445 0-0.872-0.175-1.187-0.486l-0.927-0.916c-0.525-0.518-1.236-0.809-1.978-0.809h-2.71c-1.854 0-3.358-1.485-3.358-3.317s1.503-3.317 3.358-3.317h8.953c1.854 0 3.358 1.485 3.358 3.317 0 1.809-1.467 3.28-3.29 3.316l-0 0.001h-0.819c-0.445 0-0.872-0.175-1.187-0.486l-0.927-0.916c-0.43-0.425-0.987-0.698-1.583-0.782l-0.028-0.028h-4.477c-0.618 0-1.119-0.495-1.119-1.105s0.501-1.105 1.119-1.105h8.953c0.618 0 1.119 0.495 1.119 1.105s-0.501 1.105-1.119 1.105h-2.238l0.791 0.782c0.21 0.207 0.494 0.324 0.791 0.324h0.656c1.236 0 2.238-0.99 2.238-2.211s-1.002-2.211-2.238-2.211h-8.953c-1.236 0-2.238 0.99-2.238 2.211s1.002 2.211 2.238 2.211h4.109c0.445 0 0.872 0.175 1.187 0.486l0.927 0.916c0.525 0.518 1.236 0.809 1.978 0.809h1.031v-0.008c2.342-0.143 4.197-2.064 4.197-4.414 0-2.442-2.004-4.422-4.477-4.422h-8.953c-2.472 0-4.477 1.98-4.477 4.422s2.004 4.422 4.477 4.422h2.71c0.445 0 0.872 0.175 1.187 0.486l0.927 0.916c0.525 0.518 1.236 0.809 1.978 0.809h2.151c3.709 0 6.715-2.97 6.715-6.633s-3.006-6.633-6.715-6.633h-8.953c-3.709 0-6.715 2.97-6.715 6.633s3.006 6.633 6.715 6.633h1.511c0.445 0 0.872 0.175 1.187 0.486l0.927 0.916c0.525 0.518 1.236 0.809 1.978 0.809h3.349c4.945 0 8.953-3.96 8.953-8.844s-4.009-8.844-8.953-8.844h-8.953c-4.945 0-8.953 3.96-8.953 8.844s4.009 8.844 8.953 8.844z"></path>
</symbol>
<symbol id="client-6" viewBox="0 0 35 32">
<path d="M8.299 9.416c-1.33 0-2.606 0.528-3.547 1.469l-3.070 3.070c-0.941 0.941-1.469 2.217-1.469 3.547 0 2.77 2.246 5.016 5.016 5.016 1.33 0 2.606-0.529 3.547-1.469l2.124-2.124c0-0 0 0 0 0l6.187-6.187c0.449-0.449 1.059-0.702 1.694-0.702 1.064 0 1.966 0.693 2.278 1.653l1.953-1.953c-0.891-1.395-2.453-2.32-4.231-2.32-1.33 0-2.606 0.528-3.547 1.469l-8.311 8.311c-0.449 0.449-1.059 0.702-1.694 0.702-1.323 0-2.396-1.073-2.396-2.396 0-0.635 0.252-1.245 0.702-1.694l3.070-3.070c0.449-0.449 1.059-0.702 1.694-0.702 1.064 0 1.966 0.693 2.278 1.653l1.953-1.953c-0.891-1.395-2.453-2.32-4.231-2.32z"></path>
<path d="M17.405 19.196c-0.449 0.449-1.059 0.702-1.694 0.702-1.064 0-1.965-0.693-2.278-1.652l-1.953 1.953c0.891 1.395 2.453 2.32 4.231 2.32 1.33 0 2.606-0.529 3.547-1.469l8.311-8.311c0.449-0.449 1.059-0.702 1.694-0.702 1.323 0 2.396 1.073 2.396 2.396 0 0.635-0.252 1.245-0.702 1.694l-3.070 3.070c-0.449 0.449-1.059 0.702-1.694 0.702-1.064 0-1.966-0.693-2.278-1.653l-1.953 1.953c0.891 1.395 2.453 2.32 4.231 2.32 1.33 0 2.606-0.529 3.547-1.469l3.070-3.070c0.941-0.941 1.469-2.217 1.469-3.547 0-2.77-2.246-5.016-5.016-5.016-1.33 0-2.606 0.528-3.547 1.469l-8.311 8.311z"></path>
</symbol>
<symbol id="client-7" viewBox="0 0 37 32">
<path fill="#000" style="fill: var(--color2, #000)" d="M36.6 13.13c0.004-0.027 0.004-0.055 0-0.082 0.004-0.022 0.004-0.045 0-0.067l-0.267-1.921c-0.038-0.23-0.141-0.445-0.297-0.62l-0.046-0.052-0.084-0.082-4.621-3.902 0.13 0.127c-0.106-0.124-0.239-0.224-0.39-0.291s-0.314-0.101-0.48-0.098h-1.403c-0.228-0.004-0.451 0.067-0.633 0.202-0.191-0.134-0.421-0.205-0.656-0.202h-1.403c-0.184-0.003-0.366 0.042-0.526 0.13s-0.295 0.216-0.389 0.371c-0.145 0.222-0.199 0.488-0.153 0.748l0.175 1.211c-0.116-0.065-0.248-0.098-0.381-0.097h-6.794c-0.244 0.002-0.482 0.072-0.686 0.202-0.198 0.121-0.356 0.295-0.457 0.501l-0.526-0.441c-0.207-0.188-0.48-0.29-0.763-0.284h-10.66c-0.245 0.004-0.484 0.071-0.694 0.194-0.287 0.165-0.498 0.433-0.587 0.748l-3.386 11.101c-0.063 0.183-0.069 0.38-0.018 0.567s0.159 0.354 0.308 0.48c0.039 0.032 0.080 0.062 0.122 0.090 0 0-0.069-0.045-0.107-0.082l4.621 3.91c0.195 0.176 0.451 0.275 0.717 0.277h10.744c0.245-0.006 0.485-0.076 0.694-0.202 0.118-0.063 0.224-0.147 0.313-0.247l0.038-0.052 0.061-0.075 0.046-0.082 0.503 0.426c0.193 0.169 0.443 0.263 0.702 0.262h10.767c0.245-0.008 0.484-0.077 0.694-0.202 0.116-0.067 0.221-0.15 0.313-0.247l0.038-0.052 0.061-0.075c0.032-0.047 0.061-0.097 0.084-0.15 0.025-0.045 0.045-0.093 0.061-0.142l3.088-10.137v-0.090c0.004-0.035 0.004-0.070 0-0.105v-0.067c0.004-0.022 0.004-0.045 0-0.067 0.003-0.047 0.003-0.095 0-0.142h0.991c0.086 0.008 0.173 0.008 0.259 0h0.069c0.056-0.016 0.11-0.039 0.16-0.067h0.076l0.137-0.105 0.061-0.045 0.107-0.135v-0.045l0.076-0.127c-0.004-0.025-0.004-0.050 0-0.075-0.004-0.012-0.004-0.025 0-0.037 0.016-0.044 0.029-0.089 0.038-0.135-0.004-0.015-0.004-0.030 0-0.045-0.004-0.022-0.004-0.045 0-0.067 0 0 0.152-0.292 0.152-0.307z"></path>
<path fill="#fff" style="fill: var(--color3, #fff)" d="M16.263 9.332c0.040 0.036 0.069 0.083 0.081 0.135s0.008 0.107-0.012 0.156l-3.378 11.094c-0.043 0.121-0.13 0.222-0.244 0.284-0.093 0.061-0.201 0.097-0.313 0.105h-10.736c-0.092-0.004-0.179-0.042-0.244-0.105-0.039-0.035-0.066-0.081-0.079-0.132s-0.009-0.104 0.010-0.152l3.386-11.094c0.039-0.123 0.123-0.227 0.236-0.291 0.095-0.057 0.202-0.090 0.313-0.097h10.736c0.091 0.001 0.178 0.036 0.244 0.097zM10.658 18.482l2.021-6.623h-5.658l-2.013 6.623h5.65zM26.512 9.444c0.037 0.042 0.082 0.075 0.134 0.097s0.107 0.032 0.163 0.030h1.395c0.053 0.001 0.105-0.012 0.152-0.037s0.086-0.061 0.115-0.105c0.025-0.034 0.042-0.073 0.051-0.114s0.010-0.084 0.002-0.125l-0.274-1.974c-0.026-0.091-0.073-0.176-0.137-0.247-0.037-0.042-0.082-0.075-0.134-0.097s-0.107-0.032-0.163-0.030h-1.395c-0.053-0-0.105 0.012-0.152 0.037s-0.086 0.061-0.115 0.105c-0.053 0.105-0.076 0.172-0.053 0.232l0.282 1.974c0.015 0.096 0.060 0.185 0.13 0.254zM30.942 7.202c-0.026-0.091-0.073-0.176-0.137-0.247-0.035-0.042-0.080-0.075-0.13-0.097s-0.105-0.032-0.16-0.030h-1.403c-0.052-0.001-0.104 0.011-0.15 0.036s-0.084 0.062-0.11 0.106c-0.051 0.066-0.073 0.15-0.061 0.232l0.282 1.974c0.018 0.095 0.063 0.183 0.13 0.254 0.037 0.041 0.083 0.073 0.135 0.095s0.107 0.033 0.163 0.032h1.403c0.052 0.001 0.103-0.012 0.149-0.037s0.084-0.061 0.11-0.105c0.026-0.033 0.045-0.072 0.054-0.114s0.009-0.084-0.001-0.126l-0.274-1.974zM25.284 10.192l-0.137-0.972h-6.764c-0.106 0.006-0.209 0.039-0.297 0.097-0.056 0.030-0.105 0.072-0.143 0.122s-0.065 0.108-0.078 0.17l-0.564 1.854c-0.023 0.046-0.030 0.098-0.022 0.149s0.032 0.098 0.068 0.135c0.064 0.059 0.148 0.094 0.236 0.097h8.22l-2.021 6.623h-8.197c-0.106 0.002-0.209 0.033-0.297 0.090-0.108 0.067-0.187 0.171-0.221 0.292l-0.572 1.854c-0.019 0.048-0.024 0.099-0.014 0.149s0.033 0.097 0.067 0.135c0.062 0.063 0.147 0.101 0.236 0.105h10.767c0.111-0.009 0.219-0.045 0.313-0.105 0.113-0.062 0.197-0.163 0.236-0.284l3.096-10.137h-3.485c-0.055 0.001-0.11-0.009-0.161-0.030s-0.097-0.051-0.136-0.090c-0.063-0.068-0.108-0.15-0.13-0.239v-0.015z"></path>
</symbol>
</defs>
</svg>
