<svg width="34" height="22" viewBox="0 0 34 22" fill="none" xmlns="http://www.w3.org/2000/svg">
<path d="M16.7868 14.7837C18.0979 13.6807 19.0381 12.2013 19.4799 10.546C19.9218 8.89073 19.844 7.13958 19.257 5.53C18.67 3.92043 17.6022 2.53028 16.1985 1.54803C14.7948 0.565778 13.1229 0.0389404 11.4097 0.0389404C9.6964 0.0389404 8.02457 0.565778 6.62083 1.54803C5.21709 2.53028 4.14935 3.92043 3.56237 5.53C2.97538 7.13958 2.89755 8.89073 3.33942 10.546C3.78128 12.2013 4.72148 13.6807 6.03253 14.7837C3.90627 15.7459 2.07658 17.2601 0.733702 19.1689C0.495365 19.5083 0.401364 19.9283 0.472318 20.3369C0.543272 20.7455 0.773387 21.1093 1.11219 21.3485C1.37485 21.5362 1.68987 21.6366 2.01273 21.6356C2.26385 21.6363 2.5114 21.5761 2.73417 21.4602C2.95693 21.3443 3.14826 21.1761 3.29176 20.97C4.20681 19.6667 5.4222 18.6029 6.83519 17.8685C8.24818 17.134 9.81722 16.7506 11.4097 16.7506C13.0021 16.7506 14.5712 17.134 15.9841 17.8685C17.3971 18.6029 18.6125 19.6667 19.5276 20.97C19.641 21.1493 19.7897 21.3036 19.9646 21.4237C20.1396 21.5438 20.337 21.6271 20.5451 21.6686C20.7532 21.71 20.9676 21.7087 21.1751 21.6648C21.3827 21.6209 21.5792 21.5353 21.7527 21.4132C21.9262 21.291 22.073 21.1349 22.1844 20.9543C22.2957 20.7736 22.3691 20.5723 22.4003 20.3624C22.4314 20.1525 22.4196 19.9385 22.3655 19.7333C22.3114 19.5282 22.2162 19.3362 22.0856 19.1689C20.7428 17.2601 18.9131 15.7459 16.7868 14.7837ZM6.18915 8.40158C6.18915 7.36905 6.49532 6.35972 7.06896 5.50121C7.6426 4.6427 8.45794 3.97357 9.41186 3.57844C10.3658 3.18331 11.4155 3.07993 12.4281 3.28136C13.4408 3.4828 14.371 3.98001 15.1011 4.71011C15.8312 5.44021 16.3284 6.37042 16.5299 7.3831C16.7313 8.39578 16.6279 9.44546 16.2328 10.3994C15.8377 11.3533 15.1685 12.1686 14.31 12.7423C13.4515 13.3159 12.4422 13.6221 11.4097 13.6221C10.0251 13.6221 8.69724 13.0721 7.7182 12.093C6.73916 11.114 6.18915 9.78614 6.18915 8.40158ZM32.344 21.3485C32.0813 21.5362 31.7663 21.6366 31.4434 21.6356C31.1927 21.6341 30.9459 21.573 30.7235 21.4573C30.5011 21.3415 30.3094 21.1745 30.1644 20.97C29.2474 19.669 28.0315 18.607 26.6189 17.8735C25.2063 17.1399 23.6382 16.7562 22.0465 16.7544C21.6311 16.7544 21.2328 16.5894 20.939 16.2957C20.6453 16.002 20.4803 15.6036 20.4803 15.1883C20.4803 14.7729 20.6453 14.3745 20.939 14.0808C21.2328 13.7871 21.6311 13.6221 22.0465 13.6221C23.431 13.6221 24.7589 13.0721 25.7379 12.093C26.717 11.114 27.267 9.78614 27.267 8.40158C27.267 7.01701 26.717 5.68915 25.7379 4.71011C24.7589 3.73107 23.431 3.18105 22.0465 3.18105C21.5698 3.18016 21.0953 3.24605 20.6369 3.37682C20.4379 3.4362 20.229 3.45538 20.0225 3.43326C19.8159 3.41113 19.6158 3.34814 19.4339 3.24795C19.2519 3.14776 19.0917 3.01237 18.9625 2.84966C18.8334 2.68696 18.7379 2.50019 18.6817 2.30023C18.6254 2.10027 18.6095 1.89112 18.6348 1.68494C18.6602 1.47877 18.7263 1.2797 18.8293 1.09931C18.9323 0.918933 19.0702 0.760847 19.2349 0.63426C19.3996 0.507673 19.5878 0.415114 19.7886 0.361973C20.523 0.152903 21.2829 0.0474728 22.0465 0.0487415C23.7609 0.0437627 25.4352 0.567271 26.8414 1.54799C28.2476 2.52871 29.3174 3.91898 29.9051 5.52951C30.4928 7.14005 30.5699 8.89258 30.1259 10.5485C29.6819 12.2044 28.7383 13.6833 27.4236 14.7837C29.5499 15.7459 31.3796 17.2601 32.7224 19.1689C32.8422 19.3363 32.9274 19.5259 32.9732 19.7266C33.019 19.9273 33.0244 20.1351 32.9892 20.3379C32.954 20.5407 32.8788 20.7345 32.768 20.9079C32.6573 21.0814 32.5131 21.2312 32.344 21.3485Z" fill="#4CAF4F"/>
</svg>
