<svg width="30" height="24" viewBox="0 0 30 24" fill="none" xmlns="http://www.w3.org/2000/svg">
<path d="M2.13263 6.63413V6.98217H2.48066H27.5392H27.8872V6.63413V5.06798C27.8872 4.28339 27.5755 3.53093 27.0207 2.97615C26.4659 2.42136 25.7135 2.10968 24.9289 2.10968H5.09093C4.30634 2.10968 3.55388 2.42136 2.99909 2.97615C2.44431 3.53093 2.13263 4.28339 2.13263 5.06798V6.63413ZM27.8872 8.72234V8.37431H27.5392H2.48066H2.13263V8.72234V18.6413C2.13263 19.4259 2.44431 20.1784 2.99909 20.7332C3.55388 21.2879 4.30634 21.5996 5.09093 21.5996H24.9289C25.7135 21.5996 26.4659 21.2879 27.0207 20.7332C27.5755 20.1784 27.8872 19.4259 27.8872 18.6413V8.72234ZM0.740491 5.06798C0.740491 3.91417 1.19884 2.80762 2.0147 1.99175C2.83057 1.17589 3.93712 0.717542 5.09093 0.717542H24.9289C26.0827 0.717542 27.1893 1.17589 28.0051 1.99175C28.821 2.80762 29.2793 3.91417 29.2793 5.06798V18.6413C29.2793 19.7951 28.821 20.9017 28.0051 21.7176C27.1893 22.5334 26.0827 22.9918 24.9289 22.9918H5.09093C3.93712 22.9918 2.83057 22.5334 2.0147 21.7176C1.19884 20.9017 0.740491 19.7951 0.740491 18.6413V5.06798ZM20.2304 15.335H23.3627C23.5474 15.335 23.7244 15.4083 23.8549 15.5389C23.9855 15.6694 24.0588 15.8465 24.0588 16.0311C24.0588 16.2157 23.9855 16.3927 23.8549 16.5233C23.7244 16.6538 23.5474 16.7271 23.3627 16.7271H20.2304C20.0458 16.7271 19.8688 16.6538 19.7382 16.5233C19.6077 16.3927 19.5344 16.2157 19.5344 16.0311C19.5344 15.8465 19.6077 15.6694 19.7382 15.5389C19.8688 15.4083 20.0458 15.335 20.2304 15.335Z" fill="#4CAF4F" stroke="#4CAF4F" stroke-width="0.696069"/>
</svg>
