<svg width="33" height="21" viewBox="0 0 33 21" fill="none" xmlns="http://www.w3.org/2000/svg">
<g clip-path="url(#clip0_1_1526)">
<path d="M30.6173 3.25476C30.6173 3.27829 30.6173 3.30771 30.6112 3.32537C30.5805 3.55485 30.5805 3.78433 30.5989 4.0197C30.6112 4.07854 30.6234 4.13739 30.6725 4.18446C30.7522 4.27272 30.8748 4.25507 30.9238 4.14915C30.9484 4.0962 30.9484 4.04324 30.9361 3.99028C30.8748 3.76668 30.8625 3.53132 30.8564 3.30183C30.8564 3.29006 30.8564 3.27241 30.8564 3.25476C30.9238 3.24887 30.9852 3.24299 31.0403 3.24299C31.0833 3.2371 31.12 3.23122 31.1507 3.21356C31.2426 3.16649 31.2426 3.06646 31.1445 3.01939C31.1078 3.00174 31.0587 2.99585 31.0158 2.99585C30.8625 3.00174 30.7093 3.00174 30.556 3.00174C30.5008 3.00174 30.4456 3.00762 30.3904 3.0135C30.3598 3.01939 30.323 3.01939 30.2985 3.03704C30.2556 3.05469 30.2311 3.08411 30.2311 3.1253C30.2372 3.16649 30.2556 3.19003 30.2985 3.20768C30.323 3.22534 30.3537 3.23122 30.3843 3.23122C30.4579 3.2371 30.5376 3.24887 30.6173 3.25476ZM32.3033 3.52543C32.3033 3.53132 32.3094 3.5372 32.3094 3.5372C32.3339 3.69607 32.3585 3.84906 32.3768 4.00205C32.383 4.055 32.3891 4.10208 32.4259 4.14327C32.5056 4.2433 32.6282 4.23153 32.6834 4.12562C32.7079 4.07266 32.714 4.0197 32.7018 3.96086C32.665 3.78433 32.6466 3.60781 32.6098 3.43717C32.5853 3.33125 32.5547 3.23122 32.524 3.13707C32.5056 3.07823 32.4627 3.03704 32.3891 3.03116C32.3156 3.01939 32.2604 3.05469 32.2297 3.10765C32.1929 3.15472 32.1623 3.2018 32.1377 3.25476C32.0948 3.3489 32.058 3.44305 32.009 3.53132C32.0028 3.55485 31.9967 3.5725 31.9845 3.59015C31.9784 3.57839 31.9722 3.5725 31.9722 3.5725C31.8925 3.4254 31.8189 3.27829 31.7393 3.13707C31.727 3.1253 31.7208 3.11353 31.7147 3.10177C31.6779 3.04881 31.635 3.01939 31.5676 3.01939C31.5063 3.02527 31.4572 3.06058 31.4266 3.11353C31.4143 3.13707 31.4143 3.15472 31.4082 3.17826C31.3836 3.36656 31.353 3.55485 31.3285 3.74314C31.3162 3.84906 31.3101 3.95497 31.3101 4.06089C31.304 4.08443 31.3101 4.11385 31.3223 4.13739C31.3346 4.18446 31.3714 4.21388 31.4204 4.21976C31.4817 4.22565 31.5246 4.208 31.5431 4.16092C31.5614 4.12562 31.5676 4.0962 31.5737 4.06678C31.5982 3.96086 31.6166 3.86083 31.635 3.7608C31.6473 3.70196 31.6534 3.65488 31.6718 3.59015C31.6841 3.61369 31.6963 3.63135 31.7086 3.649C31.7637 3.71961 31.8189 3.79022 31.8864 3.84906C31.9538 3.89613 32.009 3.89025 32.0642 3.83729C32.0765 3.82552 32.0826 3.81964 32.0948 3.80787C32.15 3.72549 32.2175 3.64311 32.2726 3.56073C32.2849 3.54896 32.291 3.5372 32.3033 3.52543Z" fill="#3A3B7B"/>
<path d="M18.1771 3.3703C18.1345 3.48213 18.1264 3.56269 18.146 3.62965C18.1678 3.72071 18.2242 3.75052 18.3007 3.72736C19.0208 3.55646 20.5999 4.04156 21.1845 4.17677C21.3224 4.20516 21.4346 4.03433 21.3405 3.88118C21.2032 3.73285 19.6248 3.09783 19.0226 3.06321C18.7865 3.05041 18.3645 2.99231 18.1771 3.3703Z" fill="#3A3B7B"/>
<path d="M24.3484 1.31467C24.4252 1.35718 24.4681 1.39774 24.4892 1.44305C24.5208 1.50249 24.5041 1.54361 24.4511 1.5646C23.9751 1.78757 23.3417 2.74751 23.086 3.07859C23.0241 3.15475 22.8811 3.11049 22.8595 2.98524C22.8639 2.84363 23.4254 1.80188 23.7388 1.51814C23.8619 1.40736 24.0654 1.19 24.3484 1.31467Z" fill="#3A3B7B"/>
<path d="M20.5576 0.84216C20.6498 0.775465 20.7456 0.752093 20.7946 0.795436C21.5128 1.38494 21.8936 2.31846 22.1294 3.17308C22.1383 3.19299 22.1389 3.22157 22.1318 3.25137C22.1288 3.27685 22.1094 3.30376 22.0786 3.32458C22.0457 3.34757 22.0174 3.35457 22.0041 3.33476C21.6893 2.92385 19.8915 1.32508 20.5576 0.84216Z" fill="#3A3B7B"/>
<path d="M5.3491 11.0625C5.52123 10.9395 5.70836 10.8371 5.90638 10.7577C6.11356 10.7008 6.33439 10.7102 6.5355 10.7846C6.73655 10.8589 6.907 10.994 7.02094 11.1695C7.12287 11.3446 7.16274 11.5467 7.13461 11.7455C7.10647 11.9442 7.01183 12.1287 6.86489 12.2714C6.751 12.387 6.62168 12.4877 6.48039 12.5709C5.85067 12.9614 5.21534 13.3304 4.58004 13.7209C4.45005 13.8186 4.31214 13.9062 4.16765 13.9829C3.94786 14.0881 3.69668 14.1163 3.45754 14.0626C3.2184 14.0089 3.00634 13.8767 2.85803 13.6888C2.74716 13.5557 2.65359 13.4103 2.57938 13.2555C1.97752 12.0414 1.35336 10.8326 0.773781 9.59699C0.506282 9.06215 0.288942 8.44703 0.0771737 7.85333C-0.0144471 7.68083 -0.0323386 7.48085 0.0273089 7.29587C0.0869565 7.1109 0.219437 6.95555 0.39657 6.86288C0.573704 6.77021 0.781511 6.74755 0.975802 6.79966C1.17009 6.85178 1.33554 6.97459 1.43695 7.14195C1.74865 7.53953 2.02458 7.96183 2.26173 8.40427C2.8636 9.47399 3.43761 10.5437 4.01718 11.5814C4.05093 11.6387 4.08814 11.694 4.12864 11.7472C4.56487 11.5711 4.97516 11.341 5.3491 11.0625Z" fill="#3A3B7B"/>
<path d="M11.572 10.6893C10.1955 12.2351 7.88834 11.8446 6.72919 9.85492C5.9044 8.44286 5.75951 6.11083 7.55399 4.63994C7.93718 4.332 8.39538 4.12223 8.88588 4.03019C9.48728 3.94744 10.1005 4.04927 10.638 4.32113C11.1755 4.59299 11.6097 5.02095 11.8785 5.54388C12.8593 7.25547 12.72 9.43771 11.572 10.6893ZM11.0147 7.0843C10.8685 6.6637 10.5751 6.30461 10.1843 6.06802C9.96324 5.91677 9.69455 5.84323 9.42358 5.85979C9.15255 5.87635 8.89579 5.982 8.69641 6.15895C7.89951 6.83826 7.73229 8.44823 8.31187 9.40564C8.38575 9.56176 8.49423 9.7005 8.62981 9.81216C8.76539 9.92383 8.92476 10.0057 9.09675 10.0521C9.26874 10.0984 9.44919 10.1082 9.62552 10.0806C9.80186 10.053 9.96973 9.98874 10.1175 9.89236C10.5495 9.57089 10.8664 9.12827 11.0242 8.626C11.182 8.12369 11.1729 7.5867 10.998 7.08967L11.0147 7.0843Z" fill="#3A3B7B"/>
<path d="M17.1895 7.75829C17.0485 7.78737 16.903 7.78912 16.7613 7.76338C16.6197 7.73764 16.4848 7.68502 16.3647 7.60854C16.2596 7.55083 16.1691 7.47151 16.0998 7.37622C16.0304 7.28093 15.984 7.17211 15.9638 7.05751C15.9435 6.94295 15.95 6.82551 15.9826 6.71361C16.0153 6.60172 16.0735 6.49817 16.1529 6.41041C16.2913 6.23406 16.4877 6.1078 16.7102 6.05206C17.2913 5.89021 17.8895 5.79153 18.4935 5.7579C18.6263 5.74308 18.7607 5.75386 18.889 5.7896C19.0173 5.82538 19.1369 5.88534 19.2407 5.96609C19.3445 6.04679 19.4305 6.14662 19.4936 6.25966C19.5567 6.3727 19.5956 6.49671 19.6081 6.62438C19.7822 7.25152 19.8013 7.90908 19.6638 8.54458C19.1623 10.5985 17.4347 11.3045 15.4953 10.6466C14.9509 10.4707 14.4736 10.1429 14.1244 9.70523C13.6586 9.1781 13.3284 8.55339 13.1603 7.88133C13.0241 7.28286 13.039 6.66186 13.2038 6.07009C13.3686 5.47832 13.6785 4.93296 14.1077 4.47955C14.5149 3.98675 15.0435 3.59892 15.6458 3.35097C16.0264 3.14964 16.4717 3.09239 16.8941 3.19051C16.9899 3.21596 17.0769 3.26556 17.146 3.33415C17.2152 3.40274 17.2639 3.48783 17.2872 3.5806C17.3105 3.67337 17.3076 3.77043 17.2786 3.86172C17.2496 3.95302 17.1958 4.03521 17.1226 4.09979C16.9834 4.2207 16.8322 4.32819 16.6712 4.42071C16.1757 4.72353 15.7446 5.11374 15.4006 5.57067C15.1751 5.86635 15.0198 6.20589 14.9457 6.56534C14.8715 6.92479 14.8803 7.29548 14.9715 7.65135C15.0979 8.13654 15.3783 8.57206 15.774 8.89756C17 9.96732 18.5938 8.93499 18.3152 7.47481C17.9084 7.57111 17.5517 7.67272 17.1895 7.75829Z" fill="#3A3B7B"/>
<path d="M24.6794 10.775C22.8683 11.8448 20.8063 10.775 20.3549 8.52861C20.0261 6.92401 20.6503 4.67754 22.8349 3.82175C23.2996 3.64359 23.8038 3.58103 24.3005 3.63989C24.8973 3.74475 25.4447 4.02672 25.8656 4.44607C26.2865 4.86542 26.5598 5.40097 26.6467 5.97728C27.0145 7.88674 26.1785 9.92461 24.6794 10.775ZM25.3092 7.17537C25.3086 6.73105 25.1449 6.30108 24.8467 5.96123C24.6872 5.75102 24.4568 5.6004 24.1946 5.53502C23.9324 5.4697 23.6547 5.49364 23.4088 5.60288C22.428 6.00935 21.737 7.48559 21.9878 8.57141C22.0069 8.7418 22.0646 8.90613 22.1568 9.0529C22.249 9.19966 22.3735 9.32532 22.5216 9.42111C22.6697 9.51685 22.8378 9.58044 23.0141 9.60737C23.1905 9.63425 23.3709 9.62389 23.5426 9.57695C24.061 9.40312 24.5099 9.07827 24.8266 8.64771C25.1433 8.21715 25.3121 7.70241 25.3092 7.17537Z" fill="#3A3B7B"/>
<path d="M28.4783 11.2243C28.451 11.4201 28.3438 11.5974 28.1802 11.7173C28.0166 11.8371 27.8101 11.8897 27.6062 11.8635C27.4022 11.8372 27.2175 11.7343 27.0926 11.5773C26.9677 11.4204 26.9129 11.2222 26.9402 11.0264C26.9676 10.8306 27.0748 10.6533 27.2384 10.5335C27.4019 10.4136 27.6084 10.361 27.8124 10.3872C28.0163 10.4135 28.2011 10.5164 28.326 10.6734C28.4509 10.8304 28.5057 11.0286 28.4783 11.2243ZM27.9935 4.00891C28.0995 3.85355 28.255 3.73523 28.4368 3.67161C28.6185 3.608 28.8169 3.60248 29.0022 3.6559C29.1906 3.70114 29.357 3.80712 29.4737 3.95609C29.5904 4.10508 29.6501 4.288 29.6431 4.47425C29.6185 4.77299 29.5719 5.06969 29.5038 5.36212C29.3198 6.35165 29.1415 7.34113 28.9465 8.31997C28.8573 8.71043 28.7403 9.08483 28.6121 9.48062C28.5675 9.60435 28.493 9.71615 28.3948 9.8069C28.3337 9.87516 28.2557 9.92751 28.1679 9.95912C28.0801 9.99077 27.9855 10.0006 27.8927 9.98784C27.7999 9.97504 27.712 9.93999 27.6371 9.88594C27.5621 9.83185 27.5027 9.76051 27.4641 9.67853C27.3978 9.53145 27.3618 9.3734 27.3582 9.2132C27.3582 8.54995 27.3582 7.88138 27.4028 7.21276C27.4785 6.25861 27.6275 5.31109 27.8486 4.37797C27.8746 4.25295 27.9237 4.1334 27.9935 4.02496V4.00891Z" fill="#3A3B7B"/>
<path fill-rule="evenodd" clip-rule="evenodd" d="M2.99459 15.5224C2.92879 15.6634 2.91074 15.8205 2.9429 15.9718C2.96429 16.1712 3.01127 16.3673 3.08278 16.5557C3.17205 16.7864 3.27195 17.0145 3.39513 17.2956C3.42346 17.3603 3.45306 17.4278 3.48403 17.4989C3.65014 17.8797 3.85857 18.3665 4.13658 19.071C4.21527 19.2711 4.28514 19.4728 4.35551 19.676C4.38393 19.7581 4.41246 19.8404 4.44166 19.9229C4.54633 20.2164 4.72643 20.48 4.96516 20.6889C5.06653 20.8037 5.20099 20.8874 5.35176 20.9293C5.50548 20.9719 5.66896 20.9692 5.82104 20.9215C5.97312 20.8737 6.10669 20.7832 6.20442 20.6616C6.30023 20.5423 6.3572 20.3986 6.36827 20.2485C6.43043 19.9561 6.40921 19.6529 6.30677 19.371C6.14417 18.9029 5.95896 18.4341 5.74537 17.9756L5.74439 17.9736C5.39303 17.2563 5.03587 16.5439 4.66182 15.8312L4.65902 15.8262C4.54952 15.6406 4.40721 15.4746 4.23849 15.3358C4.12896 15.2118 3.97788 15.1283 3.81103 15.0994C3.64062 15.07 3.46488 15.0997 3.31516 15.1831C3.17353 15.2608 3.06126 15.3795 2.99459 15.5224Z" fill="#3A3B7B"/>
<path fill-rule="evenodd" clip-rule="evenodd" d="M8.36111 13.7561C7.81018 13.6191 7.23481 13.5992 6.6751 13.6976C6.24158 13.7386 5.8152 13.8345 5.51913 14.0247C5.36855 14.1214 5.2468 14.2457 5.17908 14.4036C5.11098 14.5623 5.10229 14.7439 5.15809 14.9462C5.25998 15.3168 5.39229 15.6772 5.52413 16.0363L5.54549 16.0945L5.546 16.0958C5.94298 17.1392 6.34374 18.1791 6.74815 19.2155C6.79531 19.3788 6.862 19.5363 6.94687 19.6849L6.94846 19.6877C7.06058 19.8723 7.20439 20.0374 7.37381 20.1761C7.45854 20.2523 7.56332 20.3051 7.67694 20.3287C7.79167 20.3524 7.91099 20.3455 8.0219 20.3087C8.13285 20.2718 8.23109 20.2064 8.30596 20.1196C8.37961 20.0343 8.42784 19.9314 8.44556 19.822C8.51865 19.5246 8.49524 19.2128 8.3784 18.9286C8.34194 18.8329 8.31334 18.7352 8.2832 18.6323C8.27315 18.5979 8.26296 18.563 8.25221 18.5275C9.17791 18.1802 10.1629 17.7132 10.5092 16.6268C10.6449 16.2514 10.6562 15.8449 10.5416 15.463C10.4269 15.0807 10.1916 14.7419 9.86806 14.4931C9.42776 14.1449 8.91343 13.8933 8.36111 13.7561ZM6.834 15.0886C6.85223 15.0835 6.8706 15.0788 6.88901 15.0745C7.49167 14.9835 8.10826 15.1047 8.62526 15.4156C8.8531 15.5677 8.94643 15.7366 8.96246 15.8992C8.979 16.0666 8.91558 16.248 8.78818 16.4224C8.54744 16.7518 8.10812 17.0155 7.71129 17.0646C7.42199 16.4251 7.12821 15.7598 6.834 15.0886Z" fill="#3A3B7B"/>
<path d="M12.034 12.5856C12.6901 12.2948 13.5028 12.2445 14.1388 12.449C14.2989 12.4938 14.4379 12.5906 14.5319 12.723C14.6252 12.8545 14.6683 13.013 14.6539 13.1715C14.653 13.2743 14.6267 13.3755 14.5772 13.4668C14.5268 13.5598 14.4539 13.6397 14.3645 13.6999C14.2751 13.76 14.172 13.7987 14.0638 13.8125C13.9556 13.8264 13.8455 13.815 13.7428 13.7793L13.735 13.7766L13.7277 13.7729C13.6751 13.7465 13.6193 13.7267 13.5616 13.7137L13.558 13.713C13.1106 13.5989 12.6886 13.7879 12.5345 14.0201C12.461 14.1308 12.4519 14.2425 12.5131 14.3442C12.5787 14.453 12.7395 14.5752 13.0649 14.6623C13.1544 14.6859 13.2461 14.7086 13.3392 14.7318C13.5965 14.7957 13.8639 14.8621 14.1225 14.9542L14.1235 14.9546C15.3165 15.3902 15.7607 16.2925 15.6087 17.1411C15.4582 17.9804 14.728 18.7441 13.6298 18.9243C13.2302 19.0093 12.8143 18.9927 12.4234 18.8763C12.0315 18.7594 11.6782 18.5462 11.3987 18.2577L11.3914 18.2502C11.3031 18.1415 11.2438 18.0139 11.2175 17.8784C11.1933 17.7561 11.206 17.6298 11.2542 17.5142C11.302 17.3993 11.383 17.2999 11.4874 17.2275C11.5978 17.1454 11.7308 17.0961 11.87 17.0858C12.0088 17.0756 12.1476 17.1045 12.2695 17.169C12.3912 17.2255 12.5043 17.2974 12.606 17.383L12.6079 17.3846C12.7876 17.5424 13.0051 17.5835 13.2136 17.5454C13.4252 17.5068 13.6241 17.3866 13.7521 17.2272C13.8792 17.0688 13.9303 16.8806 13.8697 16.6979C13.8088 16.5139 13.6255 16.3077 13.2229 16.1354C13.1176 16.0925 13.0085 16.0579 12.895 16.0242C12.8644 16.0151 12.8332 16.0061 12.8017 15.9969C12.7178 15.9725 12.6314 15.9473 12.5467 15.9195C12.4884 15.9004 12.4306 15.8824 12.3733 15.8644C12.2166 15.8155 12.064 15.7678 11.917 15.7038C11.5972 15.5992 11.3209 15.3986 11.1292 15.1314C10.9368 14.8632 10.8399 14.5425 10.8531 14.2171C10.8541 13.4243 11.3745 12.878 12.034 12.5856Z" fill="#3A3B7B"/>
<path d="M20.3518 12.5012C20.2246 12.4415 20.0839 12.4132 19.9425 12.4188C19.801 12.4244 19.6633 12.4636 19.5416 12.5331C19.4207 12.6021 19.3195 12.6988 19.2469 12.8144C19.1804 12.9118 19.1344 13.0207 19.1115 13.1351C19.0885 13.2494 19.0891 13.3668 19.113 13.4808C19.1367 13.6274 19.163 13.7699 19.1889 13.9104C19.2319 14.1429 19.2737 14.3703 19.3013 14.602L19.3023 14.6079C19.365 14.9714 19.3979 15.339 19.4008 15.7074L19.4011 15.7126C19.4226 16.1105 19.2813 16.5006 19.0077 16.8001L19.0034 16.8055C18.9143 16.915 18.7953 16.9986 18.6595 17.0469C18.5238 17.0952 18.3768 17.1063 18.2348 17.0789C18.0929 17.0516 17.9617 16.9869 17.8559 16.8921C17.7501 16.7973 17.6738 16.6757 17.6357 16.5417C17.5543 16.2592 17.5073 15.9687 17.4953 15.6759L17.6342 13.5535C17.6363 13.5257 17.6386 13.4973 17.641 13.4686C17.6463 13.4041 17.6517 13.3385 17.6539 13.2772C17.6572 13.1871 17.6544 13.0945 17.6325 13.0067C17.6102 12.9171 17.5676 12.8318 17.4921 12.7592C17.4173 12.6873 17.3163 12.6343 17.1893 12.5982C16.9596 12.5343 16.7654 12.5364 16.6035 12.6023C16.4416 12.6682 16.3306 12.7906 16.2521 12.932C16.1742 13.0722 16.1241 13.2382 16.0863 13.4044C16.0582 13.5278 16.0356 13.6573 16.0142 13.7806C16.0067 13.8231 15.9995 13.8648 15.9922 13.9053L15.992 13.9065C15.8772 14.5825 15.843 15.2689 15.8901 15.9524C15.8989 16.3218 15.9792 16.6864 16.1268 17.0276C16.2935 17.4678 16.5952 17.8492 16.9923 18.1215C17.3903 18.3943 17.8652 18.5447 18.3541 18.5526C18.8431 18.5606 19.323 18.4257 19.7304 18.166C20.1371 17.9067 20.4523 17.535 20.6343 17.1001C20.8888 16.5461 21.0084 15.9437 20.9837 15.3386C20.9687 14.8969 20.9437 14.4518 20.9188 14.009C20.9065 13.7917 20.8943 13.575 20.8834 13.3595C20.8779 13.1435 20.8037 12.9343 20.6707 12.7599C20.5884 12.6496 20.4788 12.5607 20.3518 12.5012Z" fill="#3A3B7B"/>
<path d="M24.8545 15.8291C24.8416 15.8449 24.828 15.8612 24.8138 15.8781C24.7103 15.3052 24.6144 14.7324 24.5183 14.1588C24.4839 13.953 24.4493 13.7463 24.4144 13.5403L24.4105 13.5173L24.3978 13.4974C24.3738 13.46 24.3714 13.4234 24.3714 13.3452V13.3362L24.37 13.3272C24.344 13.1658 24.2679 13.0155 24.1517 12.8962C24.0358 12.7771 23.8852 12.6942 23.7197 12.6583C23.5544 12.6191 23.3806 12.6278 23.2204 12.6831C23.0605 12.7383 22.9212 12.8375 22.8198 12.9682C22.7355 13.0686 22.6664 13.1799 22.6146 13.2988C22.497 13.5549 22.3785 13.8118 22.2596 14.0693L22.2575 14.0737C21.9607 14.7166 21.6619 15.3638 21.3717 16.0161L21.3708 16.0182C21.1927 16.4411 21.0457 16.8868 20.8992 17.3311C20.8699 17.4197 20.8407 17.5084 20.8112 17.5968C20.7583 17.737 20.7351 17.8859 20.7431 18.0348C20.7335 18.1681 20.7667 18.301 20.8384 18.4157C20.9115 18.5326 21.021 18.6247 21.1514 18.6788C21.2897 18.737 21.4442 18.7494 21.5906 18.7139C21.7367 18.6786 21.8665 18.5976 21.9594 18.4839C22.0781 18.3437 22.1803 18.1909 22.2635 18.0289C22.5093 17.5464 22.7442 17.058 22.978 16.5717C23.0685 16.3836 23.1564 16.2151 23.2565 16.0316C23.2633 16.0543 23.2703 16.0763 23.2776 16.0984C23.3824 16.5414 23.5594 16.9657 23.8019 17.3557C23.8478 17.4383 23.9117 17.5105 23.9893 17.5674C24.0678 17.6249 24.1584 17.6653 24.2548 17.6858C24.3513 17.7063 24.4512 17.7064 24.5476 17.6861C24.644 17.6658 24.7349 17.6254 24.8134 17.5681L24.9689 17.4564L26.1758 16.4807L26.1044 16.9173C26.0065 17.5173 25.9092 18.1123 25.806 18.7075C25.7384 18.9713 25.7385 19.2468 25.8062 19.5105C25.8356 19.6589 25.9104 19.7955 26.021 19.903C26.1326 20.0113 26.2756 20.0849 26.4313 20.1143C26.587 20.1436 26.7483 20.1273 26.8943 20.0676C27.0382 20.0087 27.1605 19.9102 27.246 19.7848C27.445 19.5478 27.5689 19.2609 27.6029 18.9583C27.6541 18.5309 27.712 18.0977 27.7699 17.6646C27.8366 17.1654 27.9033 16.6663 27.9596 16.1769L27.9598 16.1754C28.014 15.6396 28.0402 15.1016 28.0384 14.5632C28.0503 14.3931 28.0062 14.2237 27.9121 14.0788C27.8178 13.9335 27.678 13.8205 27.5129 13.7558C27.3411 13.6809 27.1487 13.6608 26.9642 13.6987C26.7808 13.7363 26.6149 13.8291 26.4904 13.9635C26.2678 14.1611 26.0589 14.3725 25.8652 14.5965L25.8639 14.598C25.6524 14.8509 25.4424 15.1088 25.2337 15.365C25.1068 15.5207 24.9803 15.6761 24.8545 15.8291Z" fill="#3A3B7B"/>
</g>
<defs>
<clipPath id="clip0_1_1526">
<rect width="32.7153" height="20.186" fill="white" transform="translate(-0.00732422 0.773438)"/>
</clipPath>
</defs>
</svg>
