<svg width="30" height="20" viewBox="0 0 30 20" fill="none" xmlns="http://www.w3.org/2000/svg">
<g clip-path="url(#clip0_1_1542)">
<path d="M27.6981 1.05691C27.6981 1.38128 27.9643 1.64422 28.2927 1.64422H28.8872C29.2156 1.64422 29.4818 1.38128 29.4818 1.05691C29.4818 0.732552 29.2156 0.469604 28.8872 0.469604H28.2927C27.9643 0.469604 27.6981 0.732552 27.6981 1.05691Z" fill="#212326"/>
<path d="M10.4558 19.2635H13.3441L12.5032 18.4329C12.2803 18.2126 11.9778 18.0889 11.6624 18.0889H10.4558C5.85869 18.0889 2.13199 14.4076 2.13199 9.86654C2.13199 5.32547 5.85869 1.64423 10.4558 1.64422H19.9688C24.5659 1.64422 28.2926 5.32547 28.2926 9.86654C28.2926 14.4076 24.5659 18.0889 19.9688 18.0889H16.4102C15.9371 18.0889 15.4834 17.9032 15.1489 17.5728L14.1638 16.5997C13.6063 16.049 12.8501 15.7396 12.0617 15.7396H10.4558C7.17214 15.7396 4.51023 13.1102 4.51023 9.86654C4.51023 6.62291 7.17214 3.99346 10.4558 3.99346H19.9688C23.2525 3.99346 25.9144 6.62291 25.9144 9.86654C25.9144 13.1102 23.2525 15.7396 19.9688 15.7396H17.6838C17.2107 15.7396 16.7571 15.554 16.4225 15.2236L15.4374 14.2505C14.8799 13.6998 14.1238 13.3904 13.3353 13.3904H10.4558C8.48564 13.3904 6.88846 11.8127 6.88846 9.86654C6.88846 7.92039 8.48564 6.34269 10.4558 6.34269H19.9688C21.9389 6.34269 23.5361 7.92039 23.5361 9.86654C23.5361 11.789 21.9777 13.3519 20.0407 13.3897L20.0403 13.3904H19.1702C18.6971 13.3904 18.2435 13.2048 17.9089 12.8744L16.9238 11.9013C16.4664 11.4494 15.8752 11.16 15.2422 11.0707L15.2123 11.0412H10.4558C9.79909 11.0412 9.2667 10.5153 9.2667 9.86654C9.2667 9.21782 9.79909 8.69193 10.4558 8.69193H19.9688C20.6255 8.69193 21.1579 9.21782 21.1579 9.86654C21.1579 10.5153 20.6255 11.0412 19.9688 11.0412H17.5905L18.4314 11.8718C18.6544 12.092 18.9568 12.2158 19.2722 12.2158H19.9688C21.2822 12.2158 22.347 11.164 22.347 9.86654C22.347 8.56911 21.2822 7.51731 19.9688 7.51731H10.4558C9.14237 7.51731 8.07758 8.56911 8.07758 9.86654C8.07758 11.164 9.14237 12.2158 10.4558 12.2158H14.8217C15.2948 12.2158 15.7485 12.4014 16.083 12.7318L17.0681 13.7049C17.6256 14.2556 18.3818 14.565 19.1702 14.565H20.2661V14.556C22.7545 14.4044 24.7252 12.3628 24.7252 9.86654C24.7252 7.27167 22.5957 5.16807 19.9688 5.16807H10.4558C7.82891 5.16807 5.69935 7.27167 5.69935 9.86654C5.69935 12.4615 7.82891 14.565 10.4558 14.565H13.3353C13.8084 14.565 14.2621 14.7506 14.5966 15.081L15.5817 16.0541C16.1392 16.6049 16.8954 16.9142 17.6838 16.9142H19.9688C23.9092 16.9142 27.1035 13.7589 27.1035 9.86654C27.1035 5.97419 23.9092 2.81884 19.9688 2.81884H10.4558C6.51541 2.81884 3.32111 5.97419 3.32111 9.86654C3.32111 13.7589 6.51541 16.9142 10.4558 16.9142H12.0617C12.5348 16.9142 12.9885 17.0999 13.323 17.4303L14.3081 18.4034C14.8656 18.9541 15.6217 19.2635 16.4102 19.2635H19.9688C25.2226 19.2635 29.4817 15.0563 29.4817 9.86654C29.4817 4.67675 25.2226 0.469604 19.9688 0.469604L10.4558 0.469606C5.20196 0.469607 0.942871 4.67676 0.942871 9.86654C0.942872 15.0563 5.20197 19.2635 10.4558 19.2635Z" fill="#212326"/>
</g>
<defs>
<clipPath id="clip0_1_1542">
<rect width="28.5388" height="18.7939" fill="white" transform="translate(0.942871 0.469604)"/>
</clipPath>
</defs>
</svg>
