<svg width="29" height="21" viewBox="0 0 29 21" fill="none" xmlns="http://www.w3.org/2000/svg">
<g clip-path="url(#clip0_1_1519)">
<path fill-rule="evenodd" clip-rule="evenodd" d="M7.12121 3.6375L0.17041 10.5184C1.5607 11.8947 3.14888 13.0547 4.88046 13.9621C5.35908 15.219 6.1093 16.3976 7.1311 17.4091C10.9754 21.2148 17.2082 21.2148 21.0525 17.4091C22.0743 16.3976 22.8245 15.219 23.3032 13.9621C25.0347 13.0547 26.6229 11.8947 28.0132 10.5184L21.068 3.64309C21.0629 3.63795 21.0577 3.63281 21.0525 3.62767C17.2082 -0.177973 10.9754 -0.177973 7.1311 3.62767C7.12781 3.63095 7.12451 3.63422 7.12121 3.6375ZM20.3874 15.2036C18.3618 15.8803 16.2355 16.2269 14.0918 16.2269C11.9481 16.2269 9.82183 15.8803 7.79627 15.2036C8.01574 15.4918 8.25804 15.7684 8.52324 16.031C11.5987 19.0755 16.5849 19.0755 19.6604 16.031C19.9256 15.7684 20.1679 15.4918 20.3874 15.2036ZM8.66601 4.86799C9.18827 5.20956 9.74359 5.50185 10.3247 5.74014C11.519 6.22987 12.7991 6.48193 14.0918 6.48193C15.3845 6.48193 16.6646 6.22987 17.8589 5.74014C18.44 5.50185 18.9953 5.20956 19.5177 4.86798C16.4806 2.00724 11.703 2.00725 8.66601 4.86799Z" fill="#3B4158"/>
</g>
<defs>
<clipPath id="clip0_1_1519">
<rect width="27.8428" height="19.4899" fill="white" transform="translate(0.17041 0.773438)"/>
</clipPath>
</defs>
</svg>
