<svg width="39" height="21" viewBox="0 0 39 21" fill="none" xmlns="http://www.w3.org/2000/svg">
<g clip-path="url(#clip0_1_1522)">
<path d="M38.3233 7.50421C38.3273 7.47518 38.3273 7.44584 38.3233 7.41682C38.3271 7.39317 38.3271 7.36905 38.3233 7.34535L38.0397 5.30402C37.9988 5.0598 37.8894 4.83154 37.7238 4.64476L37.6751 4.58916L37.586 4.50178L32.6762 0.355594L32.814 0.490634C32.7013 0.358462 32.5599 0.252742 32.4 0.181262C32.2402 0.109781 32.066 0.074356 31.8904 0.0776001H30.3996C30.1572 0.0728914 29.9203 0.148451 29.7271 0.292061C29.5243 0.149316 29.28 0.0741429 29.0304 0.0776001H27.5396C27.3441 0.0744902 27.1512 0.122062 26.9805 0.215512C26.8097 0.308963 26.6672 0.444974 26.5674 0.609771C26.4134 0.845149 26.3555 1.12874 26.4053 1.40406L26.5917 2.69081C26.4682 2.6222 26.3285 2.5866 26.1866 2.58756H18.9677C18.7087 2.58915 18.4557 2.66358 18.2385 2.80201C18.0285 2.93086 17.86 3.11537 17.7524 3.33418L17.1934 2.86555C16.9733 2.66597 16.6829 2.55779 16.3832 2.56373H5.05664C4.79672 2.56837 4.54257 2.63956 4.31938 2.77024C4.01404 2.94545 3.79026 3.23034 3.69552 3.56453L0.0982472 15.3597C0.0310335 15.5541 0.0244215 15.7637 0.0792581 15.9618C0.134095 16.1598 0.247897 16.3374 0.406125 16.4718C0.447355 16.506 0.490646 16.5379 0.53576 16.567C0.53576 16.567 0.46283 16.5194 0.42232 16.4797L5.33213 20.6338C5.53982 20.8213 5.81137 20.9261 6.09366 20.9277H17.5094C17.7701 20.9211 18.0244 20.8471 18.2467 20.7132C18.3723 20.6459 18.4848 20.5571 18.5788 20.4511L18.6193 20.3955L18.6841 20.3161L18.7327 20.2287L19.2675 20.6815C19.4722 20.8615 19.7379 20.9605 20.0129 20.9595H31.4528C31.7133 20.951 31.9671 20.8771 32.1901 20.745C32.313 20.6735 32.4248 20.5853 32.5223 20.4829L32.5628 20.4273L32.6276 20.3479C32.6621 20.2976 32.6919 20.2445 32.7167 20.189C32.7432 20.1408 32.7649 20.0903 32.7815 20.0381L36.0628 9.26755V9.17222C36.0669 9.13526 36.0669 9.09798 36.0628 9.06102V8.98955C36.0668 8.96585 36.0668 8.94173 36.0628 8.91803C36.0665 8.86781 36.0665 8.81738 36.0628 8.76711H37.1161C37.2077 8.77536 37.2999 8.77536 37.3915 8.76711H37.4645C37.5238 8.74977 37.5809 8.72576 37.6346 8.69564H37.7157L37.8615 8.58444L37.9263 8.53678L38.0397 8.39379V8.34618L38.1207 8.21112C38.1162 8.18486 38.1162 8.15798 38.1207 8.13172C38.1164 8.11882 38.1164 8.10488 38.1207 8.09199C38.138 8.04542 38.1515 7.9976 38.1613 7.949C38.1575 7.93334 38.1575 7.917 38.1613 7.90134C38.1573 7.87769 38.1573 7.85352 38.1613 7.82987C38.1613 7.82987 38.3233 7.52008 38.3233 7.50421Z" fill="black"/>
<path d="M16.7154 3.46925C16.7584 3.50738 16.7884 3.55752 16.8015 3.61291C16.8145 3.6683 16.8099 3.72627 16.7883 3.77902L13.1992 15.5663C13.154 15.695 13.0615 15.8026 12.9399 15.8681C12.8409 15.933 12.7264 15.9713 12.6077 15.9793H1.20015C1.10273 15.9747 1.01043 15.9352 0.940885 15.8681C0.899512 15.8306 0.870474 15.7818 0.857484 15.7281C0.844495 15.6743 0.848153 15.618 0.86797 15.5663L4.46524 3.77902C4.50669 3.64871 4.59625 3.53824 4.7164 3.46925C4.81698 3.40902 4.93097 3.37358 5.04858 3.36599H16.4561C16.5528 3.3669 16.6455 3.40382 16.7154 3.46925ZM10.7604 13.1914L12.9075 6.15394H6.89584L4.7569 13.1914H10.7604ZM27.6044 3.58839C27.6433 3.63273 27.692 3.6679 27.7467 3.69127C27.8014 3.71465 27.8608 3.72564 27.9204 3.72342H29.4031C29.4595 3.72396 29.5151 3.71039 29.5648 3.68398C29.6144 3.65758 29.6563 3.6192 29.6866 3.5725C29.7129 3.53602 29.7316 3.49472 29.7413 3.45106C29.751 3.4074 29.7517 3.36227 29.7433 3.31834L29.4517 1.22141C29.4239 1.12436 29.374 1.03474 29.3059 0.959292C29.2669 0.914949 29.2183 0.879783 29.1636 0.856406C29.1089 0.833028 29.0495 0.822044 28.9899 0.824263H27.5072C27.4507 0.823725 27.3951 0.837299 27.3455 0.863704C27.2959 0.89011 27.2539 0.928475 27.2236 0.975183C27.1669 1.08638 27.1426 1.15786 27.1669 1.22141L27.4667 3.31834C27.4821 3.42044 27.5303 3.51505 27.6044 3.58839ZM32.3117 1.20552C32.2839 1.10847 32.234 1.01885 32.1658 0.943406C32.1286 0.899225 32.0813 0.86407 32.028 0.84065C31.9746 0.817236 31.9164 0.80619 31.858 0.808377H30.3672C30.3117 0.806827 30.2567 0.820035 30.2082 0.846602C30.1598 0.873169 30.1195 0.912114 30.0917 0.959292C30.0378 1.02976 30.0145 1.11827 30.0269 1.20552L30.3267 3.30244C30.3455 3.40347 30.3932 3.49715 30.4644 3.5725C30.504 3.61598 30.5528 3.65055 30.6074 3.67386C30.6619 3.69716 30.7209 3.70865 30.7804 3.70753H32.2712C32.3266 3.70825 32.3811 3.69469 32.4295 3.6682C32.4778 3.64171 32.5182 3.60324 32.5466 3.55662C32.5748 3.52109 32.5945 3.4798 32.6043 3.43582C32.6142 3.39185 32.6138 3.34628 32.6033 3.30244L32.3117 1.20552ZM26.3 4.38268L26.1541 3.3501H18.9677C18.8549 3.3562 18.7457 3.39186 18.6517 3.45336C18.5921 3.48526 18.5401 3.52948 18.4996 3.58296C18.459 3.63644 18.4308 3.69791 18.4168 3.76313L17.8173 5.73296C17.7933 5.78219 17.7851 5.83742 17.7938 5.8913C17.8025 5.94517 17.8276 5.99518 17.8659 6.03481C17.9342 6.09777 18.0234 6.13447 18.117 6.13807H26.851L24.7039 13.1755H15.9943C15.882 13.178 15.7726 13.211 15.6784 13.2708C15.5638 13.3421 15.4801 13.4524 15.4434 13.5805L14.8357 15.5504C14.8159 15.6009 14.8107 15.6559 14.8207 15.7091C14.8307 15.7624 14.8555 15.8119 14.8924 15.8522C14.9586 15.9194 15.0485 15.9592 15.1436 15.9634H26.5836C26.7019 15.9534 26.8159 15.9153 26.9157 15.8522C27.0354 15.7863 27.1251 15.6785 27.1669 15.5504L30.4563 4.77983H26.7537C26.695 4.78096 26.6366 4.77027 26.5823 4.74841C26.5279 4.72655 26.4788 4.69398 26.4378 4.65273C26.3708 4.5807 26.3234 4.49329 26.3 4.39857V4.38268Z" fill="white"/>
</g>
<defs>
<clipPath id="clip0_1_1522">
<rect width="38.2838" height="20.8821" fill="white" transform="translate(0.0424805 0.0773926)"/>
</clipPath>
</defs>
</svg>
