<svg width="46" height="40" viewBox="0 0 46 40" fill="none" xmlns="http://www.w3.org/2000/svg">
<path d="M45.7922 26.8834C45.7922 33.8031 40.1827 39.4127 33.263 39.4127L14.4691 39.4127C12.547 39.4127 10.9888 37.8545 10.9888 35.9323L10.9888 12.2659C10.9888 8.42166 14.1052 5.30525 17.9495 5.30525L42.3119 5.30526C44.234 5.30526 45.7922 6.86346 45.7922 8.7856L45.7922 26.8834Z" fill="#E8F5E9"/>
<path d="M19.2834 13.6656C19.0662 13.6656 18.8896 13.4893 18.8896 13.2719V12.6027C18.8896 12.3855 19.0659 12.209 19.2834 12.209C19.5006 12.209 19.6771 12.3853 19.6771 12.6027V13.2719C19.6771 13.4893 19.5006 13.6656 19.2834 13.6656Z" fill="#103E13"/>
<path d="M17.6279 13.6656C17.4107 13.6656 17.2341 13.4893 17.2341 13.2719V12.6027C17.2341 12.3855 17.4104 12.209 17.6279 12.209C17.8451 12.209 18.0216 12.3853 18.0216 12.6027V13.2719C18.0214 13.4893 17.8453 13.6656 17.6279 13.6656Z" fill="#103E13"/>
<path d="M15.9726 13.6656C15.7554 13.6656 15.5789 13.4893 15.5789 13.2719V12.6027C15.5789 12.3855 15.7551 12.209 15.9726 12.209C16.1898 12.209 16.3664 12.3853 16.3664 12.6027V13.2719C16.3664 13.4893 16.1901 13.6656 15.9726 13.6656Z" fill="#103E13"/>
<path d="M19.2834 16.402C19.0662 16.402 18.8896 16.2257 18.8896 16.0083V15.3394C18.8896 15.1222 19.0659 14.9456 19.2834 14.9456C19.5006 14.9456 19.6771 15.1219 19.6771 15.3394V16.0083C19.6771 16.2257 19.5006 16.402 19.2834 16.402Z" fill="#103E13"/>
<path d="M17.6279 16.402C17.4107 16.402 17.2341 16.2257 17.2341 16.0083V15.3394C17.2341 15.1222 17.4104 14.9456 17.6279 14.9456C17.8451 14.9456 18.0216 15.1219 18.0216 15.3394V16.0083C18.0214 16.2257 17.8453 16.402 17.6279 16.402Z" fill="#103E13"/>
<path d="M15.9726 16.402C15.7554 16.402 15.5789 16.2257 15.5789 16.0083V15.3394C15.5789 15.1222 15.7551 14.9456 15.9726 14.9456C16.1898 14.9456 16.3664 15.1219 16.3664 15.3394V16.0083C16.3664 16.2257 16.1901 16.402 15.9726 16.402Z" fill="#103E13"/>
<path d="M19.2834 19.1385C19.0662 19.1385 18.8896 18.9622 18.8896 18.7447V18.0756C18.8896 17.8584 19.0659 17.6818 19.2834 17.6818C19.5006 17.6818 19.6771 17.8581 19.6771 18.0756V18.7447C19.6771 18.9622 19.5006 19.1385 19.2834 19.1385Z" fill="#103E13"/>
<path d="M17.6279 19.1385C17.4107 19.1385 17.2341 18.9622 17.2341 18.7447V18.0756C17.2341 17.8584 17.4104 17.6818 17.6279 17.6818C17.8451 17.6818 18.0216 17.8581 18.0216 18.0756V18.7447C18.0214 18.9622 17.8453 19.1385 17.6279 19.1385Z" fill="#103E13"/>
<path d="M15.9726 19.1385C15.7554 19.1385 15.5789 18.9622 15.5789 18.7447V18.0756C15.5789 17.8584 15.7551 17.6818 15.9726 17.6818C16.1898 17.6818 16.3664 17.8581 16.3664 18.0756V18.7447C16.3664 18.9622 16.1901 19.1385 15.9726 19.1385Z" fill="#103E13"/>
<path d="M19.2834 21.8743C19.0662 21.8743 18.8896 21.6981 18.8896 21.4806V20.8114C18.8896 20.5943 19.0659 20.4177 19.2834 20.4177C19.5006 20.4177 19.6771 20.594 19.6771 20.8114V21.4806C19.6771 21.6981 19.5006 21.8743 19.2834 21.8743Z" fill="#103E13"/>
<path d="M17.6279 21.8743C17.4107 21.8743 17.2341 21.6981 17.2341 21.4806V20.8114C17.2341 20.5943 17.4104 20.4177 17.6279 20.4177C17.8451 20.4177 18.0216 20.594 18.0216 20.8114V21.4806C18.0214 21.6981 17.8453 21.8743 17.6279 21.8743Z" fill="#103E13"/>
<path d="M15.9726 21.8743C15.7554 21.8743 15.5789 21.6981 15.5789 21.4806V20.8114C15.5789 20.5943 15.7551 20.4177 15.9726 20.4177C16.1898 20.4177 16.3664 20.594 16.3664 20.8114V21.4806C16.3664 21.6981 16.1901 21.8743 15.9726 21.8743Z" fill="#103E13"/>
<path d="M19.2834 24.6107C19.0662 24.6107 18.8896 24.4344 18.8896 24.2169V23.5481C18.8896 23.3309 19.0659 23.1543 19.2834 23.1543C19.5006 23.1543 19.6771 23.3306 19.6771 23.5481V24.2169C19.6771 24.4341 19.5006 24.6107 19.2834 24.6107Z" fill="#103E13"/>
<path d="M17.6279 24.6107C17.4107 24.6107 17.2341 24.4344 17.2341 24.2169V23.5481C17.2341 23.3309 17.4104 23.1543 17.6279 23.1543C17.8451 23.1543 18.0216 23.3306 18.0216 23.5481V24.2169C18.0214 24.4341 17.8453 24.6107 17.6279 24.6107Z" fill="#103E13"/>
<path d="M15.9726 24.6107C15.7554 24.6107 15.5789 24.4344 15.5789 24.2169L15.5791 23.5481C15.5791 23.3309 15.7554 23.1543 15.9729 23.1543C16.1901 23.1543 16.3666 23.3306 16.3666 23.5481V24.2169C16.3664 24.4341 16.1901 24.6107 15.9726 24.6107Z" fill="#103E13"/>
<path d="M4.72445 27.3339C4.72445 27.5511 4.90073 27.7276 5.1182 27.7276H29.0962C29.3134 27.7276 29.49 27.5514 29.49 27.3339C29.49 27.1167 29.3137 26.9401 29.0962 26.9401H28.3684V15.6351C28.3684 15.4179 28.1921 15.2413 27.9746 15.2413L21.5459 15.2416V7.09123C21.5459 6.95339 21.474 6.82599 21.3564 6.75459C21.2392 6.68293 21.0926 6.67854 20.9707 6.74196L13.6617 10.5474C13.5313 10.6152 13.45 10.7497 13.45 10.8966V18.0158H6.3765C6.15932 18.0158 5.98276 18.1921 5.98276 18.4096V26.9402H5.11732C4.90013 26.9399 4.72412 27.1162 4.72412 27.3337L4.72445 27.3339ZM21.546 21.2051H27.5813V26.9405L21.546 26.9402V21.2051ZM21.546 18.4689H27.5813V20.4179L21.546 20.4176V18.4689ZM21.546 16.0287H27.5813V17.6819H21.546V16.0287ZM14.2371 11.1357L20.7583 7.74026V26.9398H14.2371V11.1357ZM8.71669 23.7953C8.71669 22.9782 9.36414 22.3131 10.1601 22.3131C10.9561 22.3131 11.6039 22.9779 11.6039 23.7953V26.9403H8.71669V23.7953ZM6.77023 18.8032H13.4499V26.9402H12.3913V23.7952C12.3913 22.5439 11.3908 21.5258 10.1601 21.5258C8.93003 21.5258 7.92949 22.5436 7.92949 23.7952V26.9402H6.77023V18.8032Z" fill="#103E13"/>
</svg>
