<svg width="38" height="15" viewBox="0 0 38 15" fill="none" xmlns="http://www.w3.org/2000/svg">
<g clip-path="url(#clip0_1_1546)">
<path d="M9.48474 0.557739C8.07121 0.557739 6.71559 1.11926 5.71609 2.11877L2.4541 5.38076C1.45459 6.38027 0.893066 7.73589 0.893066 9.14942C0.893066 12.093 3.27926 14.4791 6.22278 14.4791C7.63631 14.4791 8.99193 13.9176 9.99144 12.9181L12.2478 10.6617C12.2478 10.6617 12.2478 10.6618 12.2478 10.6617L18.822 4.08755C19.2993 3.61019 19.9468 3.34202 20.6219 3.34202C21.7521 3.34202 22.7103 4.07865 23.0425 5.098L25.1173 3.0232C24.1708 1.54075 22.5111 0.557739 20.6219 0.557739C19.2083 0.557739 17.8527 1.11926 16.8532 2.11877L8.02267 10.9493C7.54531 11.4267 6.89787 11.6949 6.22278 11.6949C4.81697 11.6949 3.67734 10.5552 3.67734 9.14942C3.67734 8.47432 3.94552 7.82689 4.42288 7.34952L7.68485 4.08755C8.16221 3.61019 8.80965 3.34202 9.48474 3.34202C10.615 3.34202 11.5732 4.07868 11.9054 5.09807L13.9802 3.02325C13.0337 1.54077 11.3741 0.557739 9.48474 0.557739Z" fill="#394149"/>
<path d="M19.1598 10.9493C18.6824 11.4267 18.035 11.6949 17.3599 11.6949C16.2298 11.6949 15.2717 10.9584 14.9394 9.93922L12.8646 12.014C13.8112 13.4962 15.4708 14.4791 17.3599 14.4791C18.7734 14.4791 20.129 13.9176 21.1285 12.9181L29.9591 4.08755C30.4364 3.61019 31.0839 3.34202 31.759 3.34202C33.1648 3.34202 34.3044 4.48164 34.3044 5.88745C34.3044 6.56255 34.0362 7.20998 33.5589 7.68735L30.2969 10.9493C29.8195 11.4267 29.1721 11.6949 28.497 11.6949C27.3668 11.6949 26.4087 10.9583 26.0764 9.93899L24.0016 12.0138C24.9482 13.4962 26.6078 14.4791 28.497 14.4791C29.9105 14.4791 31.2661 13.9176 32.2657 12.9181L35.5276 9.65611C36.5271 8.6566 37.0887 7.30098 37.0887 5.88745C37.0887 2.94393 34.7025 0.557739 31.759 0.557739C30.3454 0.557739 28.9898 1.11926 27.9903 2.11877L19.1598 10.9493Z" fill="#394149"/>
</g>
<defs>
<clipPath id="clip0_1_1546">
<rect width="36.1956" height="13.9214" fill="white" transform="translate(0.893066 0.557739)"/>
</clipPath>
</defs>
</svg>
