<svg width="97" height="18" viewBox="0 0 97 18" fill="none" xmlns="http://www.w3.org/2000/svg">
<g id="Nexcent">
<path d="M15.5136 0.166016V17.6903H12.3133L4.68927 6.6606H4.56092V17.6903H0.855835V0.166016H4.10741L11.6716 11.1871H11.8256V0.166016H15.5136Z" fill="white"/>
<path d="M24.496 17.947C23.1441 17.947 21.9804 17.6732 21.0049 17.1255C20.0351 16.5722 19.2878 15.7907 18.763 14.781C18.2382 13.7656 17.9758 12.5648 17.9758 11.1786C17.9758 9.82661 18.2382 8.64007 18.763 7.61896C19.2878 6.59785 20.0266 5.80207 20.9792 5.23162C21.9376 4.66117 23.0614 4.37595 24.3506 4.37595C25.2177 4.37595 26.0249 4.51571 26.7722 4.79523C27.5251 5.06904 28.1812 5.48262 28.7402 6.03596C29.305 6.5893 29.7442 7.28525 30.0579 8.12381C30.3717 8.95667 30.5286 9.93214 30.5286 11.0502V12.0514H19.4304V9.79238H27.0973C27.0973 9.26757 26.9832 8.80265 26.755 8.39763C26.5269 7.99261 26.2103 7.67601 25.8052 7.44783C25.4059 7.21394 24.941 7.097 24.4105 7.097C23.8571 7.097 23.3666 7.22535 22.9387 7.48205C22.5166 7.73305 22.1857 8.07247 21.9461 8.50031C21.7065 8.92244 21.5839 9.39306 21.5782 9.91218V12.0599C21.5782 12.7102 21.698 13.2721 21.9376 13.7456C22.1829 14.2191 22.528 14.5842 22.9729 14.8409C23.4179 15.0976 23.9456 15.2259 24.5559 15.2259C24.961 15.2259 25.3318 15.1689 25.6683 15.0548C26.0049 14.9407 26.293 14.7696 26.5326 14.5414C26.7721 14.3132 26.9547 14.0337 27.0802 13.7028L30.4516 13.9253C30.2804 14.7353 29.9296 15.4427 29.3991 16.0474C28.8743 16.6464 28.1954 17.1141 27.3626 17.4507C26.5354 17.7816 25.5799 17.947 24.496 17.947Z" fill="white"/>
<path d="M35.7183 4.54708L38.1313 9.14207L40.6042 4.54708H44.3435L40.5357 11.1187L44.4462 17.6903H40.724L38.1313 13.1466L35.5813 17.6903H31.8164L35.7183 11.1187L31.9533 4.54708H35.7183Z" fill="white"/>
<path d="M51.9761 17.947C50.6298 17.947 49.4718 17.6618 48.5021 17.0913C47.538 16.5151 46.7964 15.7165 46.2773 14.6954C45.7639 13.6743 45.5072 12.4992 45.5072 11.17C45.5072 9.82376 45.7668 8.64292 46.2859 7.62752C46.8107 6.60641 47.5551 5.81063 48.5192 5.24018C49.4832 4.66402 50.6298 4.37595 51.959 4.37595C53.1056 4.37595 54.1096 4.58416 54.971 5.00059C55.8324 5.41702 56.514 6.00173 57.016 6.75473C57.518 7.50772 57.7947 8.39192 57.8461 9.40733H54.4062C54.3093 8.75131 54.0526 8.22364 53.6361 7.82432C53.2254 7.4193 52.6863 7.21679 52.0189 7.21679C51.4542 7.21679 50.9607 7.37081 50.5386 7.67886C50.1221 7.9812 49.797 8.4233 49.5631 9.00516C49.3292 9.58702 49.2123 10.2915 49.2123 11.1187C49.2123 11.9572 49.3264 12.6703 49.5545 13.2579C49.7884 13.8454 50.1164 14.2932 50.5386 14.6013C50.9607 14.9093 51.4542 15.0634 52.0189 15.0634C52.4353 15.0634 52.809 14.9778 53.1398 14.8066C53.4764 14.6355 53.7531 14.3874 53.9698 14.0622C54.1923 13.7313 54.3378 13.3349 54.4062 12.8728H57.8461C57.789 13.8768 57.5152 14.761 57.0246 15.5254C56.5397 16.2841 55.8694 16.8774 55.0138 17.3052C54.1581 17.7331 53.1455 17.947 51.9761 17.947Z" fill="white"/>
<path d="M66.1696 17.947C64.8177 17.947 63.654 17.6732 62.6785 17.1255C61.7087 16.5722 60.9614 15.7907 60.4366 14.781C59.9118 13.7656 59.6494 12.5648 59.6494 11.1786C59.6494 9.82661 59.9118 8.64007 60.4366 7.61896C60.9614 6.59785 61.7002 5.80207 62.6528 5.23162C63.6112 4.66117 64.735 4.37595 66.0242 4.37595C66.8913 4.37595 67.6985 4.51571 68.4458 4.79523C69.1987 5.06904 69.8548 5.48262 70.4138 6.03596C70.9786 6.5893 71.4178 7.28525 71.7316 8.12381C72.0453 8.95667 72.2022 9.93214 72.2022 11.0502V12.0514H61.104V9.79238H68.7709C68.7709 9.26757 68.6568 8.80265 68.4286 8.39763C68.2005 7.99261 67.8839 7.67601 67.4788 7.44783C67.0795 7.21394 66.6146 7.097 66.0841 7.097C65.5307 7.097 65.0402 7.22535 64.6123 7.48205C64.1902 7.73305 63.8593 8.07247 63.6197 8.50031C63.3801 8.92244 63.2575 9.39306 63.2518 9.91218V12.0599C63.2518 12.7102 63.3716 13.2721 63.6112 13.7456C63.8565 14.2191 64.2016 14.5842 64.6465 14.8409C65.0915 15.0976 65.6192 15.2259 66.2295 15.2259C66.6346 15.2259 67.0054 15.1689 67.3419 15.0548C67.6785 14.9407 67.9666 14.7696 68.2062 14.5414C68.4458 14.3132 68.6283 14.0337 68.7538 13.7028L72.1252 13.9253C71.954 14.7353 71.6032 15.4427 71.0727 16.0474C70.5479 16.6464 69.869 17.1141 69.0362 17.4507C68.209 17.7816 67.2535 17.947 66.1696 17.947Z" fill="white"/>
<path d="M78.2261 10.0919V17.6903H74.581V4.54708H78.055V6.86597H78.209C78.5 6.10156 78.9877 5.49688 79.6722 5.05193C80.3568 4.60127 81.1868 4.37595 82.1623 4.37595C83.075 4.37595 83.8708 4.5756 84.5496 4.97492C85.2284 5.37424 85.7561 5.94469 86.1326 6.68627C86.5091 7.42216 86.6973 8.30065 86.6973 9.32176V17.6903H83.0522V9.97207C83.0579 9.16774 82.8525 8.54024 82.4361 8.08958C82.0196 7.63322 81.4463 7.40504 80.7162 7.40504C80.2256 7.40504 79.792 7.51058 79.4155 7.72164C79.0447 7.93271 78.7538 8.24075 78.5427 8.64577C78.3374 9.04509 78.2318 9.52712 78.2261 10.0919Z" fill="white"/>
<path d="M96.5612 4.54708V7.28525H88.6461V4.54708H96.5612ZM90.4431 1.39819H94.0882V13.6515C94.0882 13.9881 94.1396 14.2505 94.2423 14.4387C94.345 14.6213 94.4876 14.7496 94.6701 14.8238C94.8584 14.8979 95.0751 14.935 95.3204 14.935C95.4916 14.935 95.6627 14.9207 95.8338 14.8922C96.005 14.858 96.1362 14.8323 96.2274 14.8152L96.8007 17.5277C96.6182 17.5847 96.3615 17.6503 96.0306 17.7245C95.6998 17.8044 95.2976 17.8529 94.8241 17.87C93.9456 17.9042 93.1755 17.7873 92.5138 17.5191C91.8578 17.251 91.3472 16.8346 90.9821 16.2699C90.6171 15.7051 90.4374 14.992 90.4431 14.1307V1.39819Z" fill="white"/>
</g>
</svg>
