<svg width="25" height="28" viewBox="0 0 25 28" fill="none" xmlns="http://www.w3.org/2000/svg">
<path d="M23.7674 26.3838V23.5995C23.7674 22.1227 23.1807 20.7063 22.1364 19.662C21.0921 18.6177 19.6757 18.031 18.1988 18.031H16.8067C16.4375 18.031 16.0834 17.8843 15.8223 17.6232C15.5612 17.3622 15.4146 17.0081 15.4146 16.6388V9.67815C15.4146 8.93971 15.1212 8.23152 14.5991 7.70937C14.0769 7.18722 13.3687 6.89387 12.6303 6.89387C11.8918 6.89387 11.1836 7.18722 10.6615 7.70937C10.1393 8.23152 9.846 8.93971 9.846 9.67815V22.2074L6.50486 17.7526C6.24552 17.4068 5.90922 17.1261 5.52261 16.9328C5.136 16.7395 4.70969 16.6388 4.27744 16.6388H3.67325C2.46905 16.6388 1.49316 17.6147 1.49316 18.8189C1.49316 19.2143 1.60036 19.6027 1.80361 19.941L5.66958 26.3838M12.6303 2.71746V1.32532V2.71746ZM20.9831 11.0703H22.3752H20.9831ZM2.8853 11.0703H4.27744H2.8853ZM6.14708 4.5871L5.16284 3.60286L6.14708 4.5871ZM19.1135 4.5871L20.0977 3.60286L19.1135 4.5871Z" fill="#4CAF4F"/>
<path d="M23.7674 26.3838V23.5995C23.7674 22.1227 23.1807 20.7063 22.1364 19.662C21.0921 18.6177 19.6757 18.031 18.1988 18.031H16.8067C16.4375 18.031 16.0834 17.8843 15.8223 17.6232C15.5612 17.3622 15.4146 17.0081 15.4146 16.6388V9.67815C15.4146 8.93971 15.1212 8.23152 14.5991 7.70937C14.0769 7.18722 13.3687 6.89387 12.6303 6.89387V6.89387C11.8918 6.89387 11.1836 7.18722 10.6615 7.70937C10.1393 8.23152 9.846 8.93971 9.846 9.67815V22.2074L6.50486 17.7526C6.24552 17.4068 5.90922 17.1261 5.52261 16.9328C5.136 16.7395 4.70969 16.6388 4.27744 16.6388H3.67325C2.46905 16.6388 1.49316 17.6147 1.49316 18.8189C1.49316 19.2143 1.60036 19.6027 1.80361 19.941L5.66958 26.3838M12.6303 2.71746V1.32532M20.9831 11.0703H22.3752M2.8853 11.0703H4.27744M6.14708 4.5871L5.16284 3.60286M19.1135 4.5871L20.0977 3.60286" stroke="#4CAF4F" stroke-width="1.39214" stroke-linecap="round" stroke-linejoin="round"/>
</svg>
