<svg width="24" height="22" viewBox="0 0 24 22" fill="none" xmlns="http://www.w3.org/2000/svg">
<path d="M15.0112 10.7646C14.8436 10.7646 14.688 10.7185 14.5497 10.6444V10.6463C14.5497 10.91 14.4472 11.1577 14.2613 11.3431C14.0753 11.5291 13.8279 11.6316 13.5645 11.6316C13.3944 11.6316 13.2368 11.5844 13.0971 11.5083C13.083 11.7495 12.9865 11.975 12.8145 12.1472C12.6285 12.3332 12.3811 12.4357 12.1175 12.4357C11.5939 12.4357 11.1686 12.024 11.138 11.5081C10.976 11.5957 10.7928 11.6416 10.6039 11.6295C10.0887 11.5957 9.68534 11.1506 9.68534 10.616V6.18435L9.18071 7.05859C8.98851 7.39297 8.62873 7.60058 8.24136 7.60058C8.05261 7.60058 7.86615 7.55105 7.70101 7.45643C7.49537 7.33721 7.34827 7.14583 7.28709 6.91687C7.2256 6.68778 7.25741 6.44818 7.3763 6.24285C7.37647 6.24285 9.02738 3.38395 9.12809 3.20834C9.14006 3.18194 9.17418 3.10536 9.2032 3.04009C9.23092 2.97777 9.2547 2.91381 9.27749 2.84953C9.77535 1.44397 11.0081 0.570866 12.4949 0.570866C14.4255 0.570866 15.9963 2.27408 15.9963 4.36764L15.9964 9.77913C15.9964 10.0425 15.8941 10.29 15.7083 10.4761C15.5223 10.6621 15.2749 10.7646 15.0112 10.7646L15.0112 10.7646ZM12.4949 1.09441C11.2174 1.09441 10.1991 1.816 9.77096 3.02462C9.74358 3.10137 9.71504 3.17811 9.68175 3.2529C9.58516 3.46953 9.58516 3.46953 9.55794 3.50069L9.55433 3.49757C9.41953 3.75192 9.01906 4.44544 7.82962 6.50487C7.78075 6.58933 7.76779 6.6874 7.79272 6.7812C7.81798 6.875 7.87849 6.95405 7.96229 7.00242C8.22238 7.15182 8.57859 7.05539 8.72683 6.79711L9.72046 5.07681C9.77983 4.97431 9.89987 4.92397 10.015 4.95513C10.1295 4.98579 10.209 5.0896 10.209 5.208V10.6161C10.209 10.8713 10.4015 11.0915 10.6382 11.1071C10.7746 11.1143 10.9019 11.0686 10.9975 10.9731C11.0844 10.8862 11.1323 10.7704 11.1323 10.6466V7.10963C11.1323 6.96499 11.2495 6.84774 11.3942 6.84774C11.5388 6.84774 11.6561 6.96483 11.6561 7.10963L11.6559 11.4506C11.6559 11.7051 11.863 11.9122 12.1175 11.9122C12.2412 11.9122 12.3573 11.8643 12.4444 11.7774C12.5313 11.6903 12.5792 11.5742 12.5792 11.4506V7.10963C12.5792 6.96499 12.6963 6.84773 12.8411 6.84773C12.9857 6.84773 13.103 6.96483 13.103 7.10963L13.1028 10.6059V10.6466C13.1028 10.901 13.3099 11.1081 13.5646 11.1081C13.6881 11.1081 13.8039 11.06 13.8915 10.9728C13.9784 10.886 14.0263 10.7703 14.0263 10.6464V7.10945C14.0263 6.96481 14.1434 6.84755 14.2882 6.84755C14.4328 6.84755 14.5501 6.96464 14.5501 7.10945L14.5497 9.77925C14.5497 10.0339 14.7568 10.2411 15.0112 10.2411C15.135 10.2411 15.2508 10.193 15.3377 10.1063C15.4249 10.019 15.4727 9.9029 15.4727 9.77925L15.4728 4.36777C15.4728 2.56304 14.137 1.09446 12.4949 1.09446L12.4949 1.09441Z" fill="#4CAF4F"/>
<path d="M4.72152 14.5256L8.52187 12.2458C8.98006 11.9706 9.56961 12.0875 9.86349 12.5121C9.97074 12.6667 10.0255 12.847 10.034 13.0305C10.1757 12.9565 10.3299 12.9163 10.4868 12.9163C10.5672 12.9163 10.6479 12.9264 10.7276 12.9462C10.9829 13.01 11.1981 13.1696 11.3334 13.3952C11.4688 13.6212 11.5083 13.886 11.4445 14.141C11.3857 14.377 11.2422 14.5756 11.0426 14.7119C11.1822 14.7942 11.3025 14.9066 11.3881 15.0496C11.5236 15.2756 11.5631 15.5403 11.4995 15.7956C11.4357 16.0506 11.2761 16.2658 11.0501 16.4014L11.0488 16.4022C11.1859 16.4844 11.3042 16.5956 11.3888 16.7364C11.5244 16.9624 11.5639 17.2273 11.5001 17.4826C11.4362 17.7378 11.2766 17.9529 11.051 18.0884L6.4107 20.8722C5.54465 21.3915 4.54346 21.5708 3.59198 21.3765C2.63198 21.1803 1.83692 20.6285 1.3535 19.8226C0.588457 18.5476 0.70311 17.0411 1.65213 15.8914C1.69559 15.8389 1.73839 15.7854 1.77725 15.73C1.81842 15.6715 1.86647 15.6026 1.88286 15.579C1.98109 15.4035 3.58398 12.5156 3.58381 12.5159C3.74567 12.2238 4.04906 12.0585 4.36195 12.0587C4.5079 12.0587 4.65599 12.0946 4.7926 12.1704C4.95758 12.2625 5.09615 12.3968 5.19307 12.5587C5.39232 12.8908 5.39938 13.3064 5.21177 13.6427L4.72152 14.5256ZM4.74432 12.8279C4.69348 12.7432 4.62362 12.6756 4.53818 12.6277C4.36156 12.53 4.13918 12.5936 4.04195 12.7696C2.895 14.8359 2.50402 15.54 2.35314 15.7906L2.35658 15.7914C2.34395 15.8334 2.34395 15.8334 2.20587 16.0307C2.15897 16.0975 2.10797 16.1616 2.05598 16.2247C1.23994 17.2134 1.14518 18.4577 1.80229 19.5533C2.20932 20.2319 2.88202 20.6971 3.69656 20.8634C4.51995 21.0308 5.38781 20.875 6.14105 20.4231L10.7817 17.6392C10.8877 17.5757 10.9625 17.4749 10.9923 17.3553C11.0222 17.2359 11.0036 17.1118 10.94 17.0058C10.8091 16.7877 10.5249 16.7161 10.3068 16.8474L8.0175 18.2209C7.89352 18.2953 7.73248 18.2553 7.65819 18.1312C7.58374 18.0072 7.62392 17.8463 7.7479 17.7719L10.0374 16.3984L10.7809 15.9524C10.8869 15.8887 10.9618 15.7879 10.9917 15.6686C11.0215 15.5491 11.003 15.4248 10.9393 15.319C10.8083 15.1007 10.5241 15.0297 10.3062 15.1606L7.27314 16.9801C7.14883 17.0547 6.98828 17.0144 6.91383 16.8904C6.83938 16.7664 6.87972 16.6055 7.00353 16.5311L10.726 14.298C10.8319 14.2344 10.9067 14.1337 10.9366 14.0142C10.9664 13.8948 10.9479 13.7706 10.8844 13.6647C10.821 13.5589 10.7201 13.4841 10.6005 13.4543C10.4803 13.4244 10.3567 13.443 10.2511 13.5063L9.56198 13.9197C9.56182 13.9197 9.56182 13.9199 9.56166 13.9199H9.56149L6.52862 15.7394C6.40432 15.8141 6.2436 15.7738 6.16932 15.6497C6.09486 15.5257 6.1352 15.3648 6.25902 15.2904L9.29206 13.4708C9.39799 13.4072 9.47294 13.3064 9.50278 13.1871C9.53558 13.0563 9.51066 12.9225 9.43292 12.8103C9.29812 12.6153 9.00983 12.5635 8.79123 12.6948L4.15389 15.4768C4.05237 15.5375 3.92233 15.5227 3.83722 15.4406C3.75194 15.3583 3.73275 15.2289 3.79015 15.1254L4.75444 13.388C4.85119 13.2144 4.84742 12.9999 4.74427 12.828L4.74432 12.8279Z" fill="#4CAF4F"/>
<path fill-rule="evenodd" clip-rule="evenodd" d="M4.15389 15.4768C4.05238 15.5375 3.92233 15.5228 3.83722 15.4406C3.76329 15.3692 3.73903 15.2625 3.77128 15.1679C3.77623 15.1534 3.78251 15.1392 3.79015 15.1254L4.75414 13.3886C4.75421 13.3885 4.75457 13.3878 4.75464 13.3877C4.76819 13.3633 4.77977 13.3382 4.78937 13.3124C4.80294 13.276 4.81256 13.2385 4.81825 13.2005C4.81834 13.1999 4.81843 13.1993 4.81851 13.1987C4.83697 13.0725 4.81211 12.941 4.74427 12.828C4.74435 12.8281 4.7442 12.8279 4.74427 12.828C4.69358 12.7436 4.62382 12.6758 4.53878 12.628C4.53898 12.6282 4.53858 12.6279 4.53878 12.628C4.53851 12.6279 4.53764 12.6274 4.53737 12.6273C4.50164 12.6076 4.46406 12.5945 4.42602 12.5877C4.42608 12.5877 4.42596 12.5876 4.42602 12.5877C4.40478 12.5838 4.38322 12.5819 4.36195 12.5818C4.36205 12.5818 4.36186 12.5818 4.36195 12.5818C4.3291 12.5818 4.29622 12.5862 4.26479 12.5947C4.17977 12.6179 4.10326 12.6716 4.05318 12.7506C4.04927 12.7568 4.04553 12.7631 4.04195 12.7696C4.04199 12.7695 4.04192 12.7696 4.04195 12.7696C4.04056 12.7721 4.03907 12.7748 4.03768 12.7773C4.00727 12.832 3.97739 12.8859 3.94803 12.9388C3.94779 12.9392 3.94755 12.9396 3.94731 12.9401C3.93748 12.9578 3.9277 12.9754 3.91799 12.9929C3.91345 13.0011 3.90892 13.0092 3.9044 13.0174C3.88349 13.055 3.86284 13.0922 3.84247 13.1289C3.4758 13.7895 3.19625 14.2929 2.98234 14.677C2.98238 14.677 2.9823 14.6771 2.98234 14.677C2.96607 14.7062 2.95007 14.735 2.93455 14.7628C2.89768 14.829 2.86289 14.8914 2.83007 14.9502C2.57298 15.4107 2.43634 15.6517 2.35917 15.7806C2.35715 15.784 2.35518 15.7873 2.35325 15.7905C2.35328 15.7904 2.35321 15.7905 2.35325 15.7905L2.35658 15.7915C2.35647 15.7918 2.35637 15.7922 2.35626 15.7925C2.35289 15.8037 2.35036 15.812 2.34566 15.8221C2.34389 15.8259 2.34181 15.8299 2.33927 15.8345C2.33342 15.845 2.3251 15.8582 2.31236 15.8772C2.29154 15.9083 2.2589 15.955 2.20596 16.0306C2.15914 16.0972 2.10786 16.1617 2.05599 16.2247C1.95365 16.3488 1.86211 16.4775 1.78254 16.6088C1.228 17.5239 1.22777 18.5954 1.80229 19.5533C2.20932 20.2319 2.88207 20.6972 3.69656 20.8635C4.51989 21.0308 5.38788 20.8751 6.14106 20.4231L10.7814 17.6394C10.7814 17.6394 10.7814 17.6394 10.7814 17.6394C10.7819 17.6392 10.7827 17.6386 10.7832 17.6384C10.8882 17.5749 10.9625 17.4746 10.9922 17.3557C10.9922 17.3558 10.9923 17.3556 10.9922 17.3557C11.0221 17.2364 11.0037 17.1119 10.9401 17.006C10.9302 16.9895 10.9192 16.9735 10.9076 16.9587C10.8721 16.9133 10.8293 16.8761 10.7819 16.8477C10.6405 16.763 10.4581 16.7566 10.3073 16.8472C10.3074 16.8471 10.3071 16.8473 10.3073 16.8472L8.01754 18.2209C8.0176 18.2209 8.01748 18.2209 8.01754 18.2209C8.00268 18.2298 7.98708 18.2372 7.97138 18.2429C7.85604 18.2845 7.72355 18.2404 7.6582 18.1312C7.59182 18.0207 7.61657 17.8808 7.71059 17.799C7.72201 17.7891 7.73445 17.78 7.74788 17.7719C7.74787 17.7719 7.74789 17.7719 7.74788 17.7719L10.0367 16.3989L10.7807 15.9525C10.8102 15.9348 10.8379 15.9137 10.8623 15.8906C10.9252 15.8309 10.97 15.7548 10.9916 15.6691C11.0214 15.5495 11.003 15.4248 10.9394 15.319C10.9295 15.3026 10.9184 15.2865 10.9069 15.2718C10.8708 15.2257 10.8271 15.188 10.7787 15.1594C10.6374 15.0761 10.4561 15.0706 10.3062 15.1606L9.56248 15.6068L7.27343 16.98C7.27348 16.9799 7.27338 16.98 7.27343 16.98C7.26008 16.9879 7.2455 16.9951 7.23146 17.0004C7.11494 17.045 6.98019 17.0009 6.91384 16.8904C6.8474 16.7798 6.87237 16.6398 6.96649 16.558C6.97785 16.5482 6.99021 16.5391 7.00354 16.5311L10.0365 14.7117L10.7258 14.2982C10.7257 14.2982 10.7258 14.2982 10.7258 14.2982C10.7338 14.2934 10.742 14.2881 10.7496 14.2829C10.7845 14.2591 10.8155 14.231 10.8421 14.1995C10.8869 14.1464 10.9192 14.0836 10.9365 14.0143C10.9663 13.895 10.9479 13.7706 10.8844 13.6647C10.821 13.5592 10.7203 13.4843 10.601 13.4544C10.5633 13.445 10.5246 13.4403 10.4868 13.4404C10.4552 13.4404 10.4239 13.4438 10.3931 13.4503C10.3525 13.4589 10.3129 13.4731 10.2753 13.4927C10.2671 13.497 10.2591 13.5015 10.2511 13.5063L9.56199 13.9197L6.52892 15.7392C6.52869 15.7394 6.528 15.7398 6.52777 15.7399C6.51457 15.7478 6.50095 15.7544 6.48708 15.7597C6.3705 15.8044 6.23556 15.7604 6.16932 15.6497C6.10388 15.5407 6.12713 15.4032 6.21782 15.321C6.23019 15.3097 6.24382 15.2996 6.25865 15.2906C6.25853 15.2907 6.25878 15.2905 6.25865 15.2906L9.29207 13.4709C9.39775 13.4072 9.47299 13.3062 9.50279 13.1872C9.51387 13.143 9.51836 13.0985 9.51646 13.0545C9.51557 13.0339 9.51328 13.0135 9.50959 12.9932C9.5096 12.9933 9.50958 12.9932 9.50959 12.9932C9.50951 12.9928 9.5094 12.9922 9.50932 12.9918C9.50277 12.9564 9.49197 12.9218 9.47703 12.8884C9.46505 12.8615 9.45039 12.8355 9.43313 12.8106C9.30366 12.6234 9.03249 12.5679 8.81765 12.68C8.8178 12.6799 8.81751 12.6801 8.81765 12.68C8.80898 12.6846 8.79996 12.6896 8.79148 12.6947L4.15389 15.4768ZM4.72153 14.5256L5.21171 13.6428C5.21182 13.6426 5.21159 13.643 5.21171 13.6428C5.27591 13.5275 5.31767 13.4022 5.33626 13.2749C5.33627 13.2749 5.33626 13.2749 5.33626 13.2749C5.34624 13.2065 5.34966 13.1373 5.34654 13.0684C5.3385 12.8913 5.28728 12.7158 5.19314 12.5588C5.09651 12.3974 4.95837 12.2633 4.79404 12.1712C4.79356 12.1709 4.79308 12.1706 4.79261 12.1704C4.79226 12.1702 4.79192 12.17 4.79158 12.1698C4.65525 12.0944 4.50754 12.0587 4.36195 12.0587C4.19256 12.0586 4.02595 12.107 3.88308 12.1978C3.7622 12.2746 3.65831 12.3817 3.5841 12.5154C3.58329 12.5169 3.57963 12.5235 3.57426 12.5331C3.56253 12.5543 3.54032 12.5943 3.50953 12.6498C3.47541 12.7112 3.43074 12.7917 3.3781 12.8865C2.97346 13.6155 2.09726 15.1939 1.91271 15.5255C1.89846 15.5511 1.88833 15.5692 1.88287 15.579C1.87512 15.5901 1.86033 15.6114 1.84253 15.6369C1.82271 15.6652 1.79916 15.6989 1.77749 15.7297C1.73871 15.785 1.69546 15.8391 1.65213 15.8914C1.652 15.8916 1.65226 15.8913 1.65213 15.8914C1.49679 16.0797 1.36342 16.278 1.25302 16.4828C0.68918 17.5286 0.713814 18.7565 1.35341 19.8225C1.83681 20.6284 2.63189 21.1803 3.59182 21.3765C4.54317 21.5707 5.54459 21.3916 6.41053 20.8723L11.0509 18.0885C11.051 18.0884 11.0508 18.0885 11.0509 18.0885C11.2765 17.953 11.4362 17.7377 11.5002 17.4826C11.5238 17.3879 11.5333 17.2914 11.5288 17.1966C11.5284 17.1868 11.5278 17.1771 11.527 17.1674C11.527 17.1663 11.5269 17.1651 11.5268 17.164C11.5148 17.0147 11.4683 16.869 11.3889 16.7366C11.3782 16.7188 11.3669 16.7014 11.3552 16.6846C11.2749 16.5692 11.1708 16.4759 11.0524 16.4044C11.0523 16.4043 11.0526 16.4045 11.0524 16.4044C11.0515 16.4039 11.0498 16.4028 11.0488 16.4023L11.0502 16.4014C11.1732 16.3275 11.2769 16.2298 11.3558 16.1151C11.4216 16.0194 11.4704 15.9117 11.4995 15.7958C11.515 15.7334 11.5245 15.6701 11.5278 15.6073C11.5313 15.5404 11.528 15.4738 11.5179 15.4081C11.4988 15.283 11.4553 15.1616 11.3882 15.0496C11.3764 15.03 11.3638 15.0106 11.3508 14.9922C11.269 14.8762 11.1629 14.7829 11.0426 14.7119C11.1602 14.6317 11.2583 14.5298 11.3311 14.4113C11.3819 14.3287 11.4203 14.2381 11.4445 14.1412C11.4573 14.0899 11.466 14.0381 11.4706 13.9864C11.4886 13.7813 11.4417 13.5761 11.3336 13.3956C11.2236 13.2121 11.0606 13.072 10.8663 12.9918C10.8216 12.9734 10.7753 12.9581 10.7276 12.9462C10.6481 12.9265 10.5669 12.9164 10.4868 12.9164C10.4699 12.9164 10.453 12.9168 10.4361 12.9178C10.2968 12.9254 10.1604 12.9645 10.034 13.0305C10.0276 12.8914 9.99455 12.7542 9.93223 12.6286C9.9124 12.5886 9.8896 12.5498 9.86374 12.5125C9.80296 12.4247 9.7292 12.3496 9.64691 12.2888C9.3313 12.0559 8.88527 12.0275 8.52187 12.2458L4.72153 14.5256Z" fill="#4CAF4F"/>
<path d="M22.8812 19.8225C22.3979 20.6285 21.6031 21.1802 20.6429 21.3764C19.6912 21.5704 18.6904 21.3914 17.8242 20.8721L13.1835 18.0882C12.9577 17.9527 12.7979 17.7375 12.734 17.482C12.6705 17.227 12.7102 16.9622 12.8455 16.7365C12.9299 16.5955 13.0483 16.4843 13.1856 16.4021L13.1843 16.4013C12.9585 16.2658 12.7988 16.0507 12.7351 15.7955C12.6712 15.5403 12.7109 15.2753 12.8463 15.0494C12.9336 14.9042 13.0531 14.7907 13.1896 14.7102C12.9915 14.5739 12.8488 14.376 12.7901 14.1412C12.7261 13.8858 12.7658 13.621 12.9013 13.3953C13.0366 13.1695 13.2519 13.0099 13.5071 12.9461C13.5868 12.9261 13.6676 12.9163 13.7476 12.9163C13.9047 12.9164 14.0589 12.9563 14.2006 13.0304C14.2093 12.8469 14.2639 12.6667 14.3711 12.512C14.6652 12.0878 15.2542 11.9704 15.7131 12.2457L19.5133 14.5252L19.0235 13.6429C18.8355 13.3061 18.8424 12.8905 19.0417 12.5583C19.1387 12.3966 19.2775 12.2623 19.4433 12.1693C19.5796 12.0938 19.7272 12.0581 19.8728 12.0581C20.1855 12.0583 20.4892 12.2232 20.6509 12.5153C21.2144 13.5306 22.2777 15.4454 22.3525 15.579C22.3684 15.6022 22.4164 15.671 22.4576 15.7296C22.4968 15.7852 22.5391 15.8383 22.5829 15.8911C23.5318 17.0413 23.6462 18.5476 22.8812 19.8225L22.8812 19.8225ZM22.1789 16.2249C22.1267 16.1617 22.0755 16.0973 22.029 16.0309C21.8873 15.8298 21.8837 15.8246 21.873 15.7719C21.7074 15.4979 21.3033 14.7704 20.1926 12.7694C20.0952 12.5937 19.8738 12.5296 19.6975 12.627C19.6107 12.6756 19.541 12.7433 19.4902 12.8281C19.3872 12.9998 19.3833 13.2143 19.4805 13.3884L20.4445 15.1253C20.502 15.2289 20.4829 15.3582 20.3977 15.4405C20.3128 15.523 20.1829 15.5374 20.0809 15.4767L15.4436 12.6947C15.225 12.5637 14.9368 12.615 14.8017 12.8102C14.724 12.9224 14.6992 13.0562 14.7317 13.1869C14.7615 13.3063 14.8365 13.407 14.9426 13.4706C14.9429 13.4708 14.9431 13.4711 14.9434 13.4712L17.9755 15.2902C18.0994 15.3647 18.1396 15.5254 18.0652 15.6496C17.9907 15.7734 17.8302 15.8139 17.7059 15.7393L13.9834 13.5062C13.8778 13.4429 13.7535 13.4242 13.6341 13.4542C13.5144 13.484 13.4137 13.5588 13.3502 13.6649C13.2866 13.7707 13.2682 13.8948 13.2977 14.0142C13.3276 14.1336 13.4025 14.2345 13.5085 14.2981L14.2328 14.7325L17.2308 16.5312C17.3547 16.6057 17.3949 16.7664 17.3205 16.8905C17.246 17.0143 17.0855 17.0547 16.9612 16.9802L13.9285 15.1607C13.7104 15.0295 13.4263 15.1007 13.2951 15.3191C13.2315 15.4251 13.2131 15.5492 13.2426 15.6686C13.2725 15.788 13.3474 15.8887 13.4535 15.9525L14.1971 16.3985L16.4862 17.772C16.6102 17.8464 16.6504 18.0071 16.5759 18.1313C16.5015 18.2551 16.3409 18.2958 16.2166 18.221L13.9275 16.8475C13.8219 16.7842 13.6981 16.7655 13.578 16.7956C13.4586 16.8254 13.3576 16.9002 13.2941 17.006C13.2307 17.1119 13.2121 17.2362 13.2417 17.3554C13.2715 17.4748 13.3465 17.5755 13.4526 17.6393L18.0933 20.4232C18.8463 20.875 19.7148 21.0314 20.5377 20.8635C21.3521 20.6972 22.0248 20.232 22.4319 19.5534C23.0896 18.4576 22.995 17.2132 22.1791 16.2248L22.1789 16.2249Z" fill="#4CAF4F"/>
</svg>
