<svg width="29" height="28" viewBox="0 0 29 28" fill="none" xmlns="http://www.w3.org/2000/svg">
<g clip-path="url(#clip0_1_1516)">
<path fill-rule="evenodd" clip-rule="evenodd" d="M7.34876 0.0548096C11.193 0.0548096 14.3095 3.17122 14.3095 7.0155V0.0548096H21.2701C25.1144 0.0548096 28.2308 3.17122 28.2308 7.0155C28.2308 10.8598 25.1144 13.9762 21.2701 13.9762C25.1144 13.9762 28.2308 17.0926 28.2308 20.9369C28.2308 22.8457 27.4625 24.5751 26.2182 25.8326L26.1921 25.8589L26.169 25.8818C24.9112 27.1279 23.1806 27.8976 21.2701 27.8976C19.3727 27.8976 17.6526 27.1384 16.397 25.9072C16.3807 25.8912 16.3644 25.875 16.3482 25.8589C16.3329 25.8436 16.3178 25.8283 16.3026 25.8129C15.0698 24.5571 14.3095 22.8358 14.3095 20.9369C14.3095 24.7811 11.193 27.8976 7.34876 27.8976C3.50447 27.8976 0.388062 24.7811 0.388062 20.9369V13.9762H7.34876C3.50447 13.9762 0.388062 10.8598 0.388062 7.0155C0.388062 3.17122 3.50447 0.0548096 7.34876 0.0548096ZM12.9173 7.0155C12.9173 10.0909 10.4242 12.5841 7.34876 12.5841V1.44695C10.4242 1.44695 12.9173 3.94007 12.9173 7.0155ZM26.8387 20.9369C26.8387 17.8615 24.3456 15.3683 21.2701 15.3683C18.1947 15.3683 15.7016 17.8615 15.7016 20.9369H26.8387ZM1.7802 15.3683V20.9369C1.7802 24.0123 4.27333 26.5054 7.34876 26.5054C10.4242 26.5054 12.9173 24.0123 12.9173 20.9369V15.3683H1.7802ZM15.7016 12.5841V1.44695H21.2701C24.3456 1.44695 26.8387 3.94007 26.8387 7.0155C26.8387 10.0909 24.3456 12.5841 21.2701 12.5841H15.7016Z" fill="#5417D7"/>
</g>
<defs>
<clipPath id="clip0_1_1516">
<rect width="27.8428" height="27.8428" fill="white" transform="translate(0.388062 0.0548096)"/>
</clipPath>
</defs>
</svg>
