<svg width="31" height="22" viewBox="0 0 31 22" fill="none" xmlns="http://www.w3.org/2000/svg">
<g id="Icon">
<path id="Vector" d="M17.0183 12.0322L12.379 19.9777L7.7398 12.0322H17.0183ZM18.2611 11.322H6.49194L12.379 21.3831L18.2611 11.322Z" fill="white"/>
<path id="Vector_2" d="M25.0843 2.14975L29.7235 10.0953H20.445L25.0843 2.14975ZM25.0843 0.729492L19.1971 10.7905H30.9713L25.0843 0.729492Z" fill="white"/>
<path id="Vector_3" d="M0.85144 0.729492L5.78757 9.62848L11.1815 0.952948L0.85144 0.729492Z" fill="#4CAF4F"/>
<path id="Vector_4" d="M12.3791 1.50903L17.5568 10.3584H7.19141L12.3791 1.50903Z" fill="#4CAF4F"/>
<path id="Vector_5" d="M18.8903 12.2905L24.073 21.3832H13.4611L18.7293 12.2905H18.8903Z" fill="#4CAF4F"/>
<path id="Vector_6" d="M20.0122 11.7393L25.0842 20.6929L30.2266 11.7393H20.0122Z" fill="#4CAF4F"/>
</g>
</svg>
