<svg width="14" height="13" viewBox="0 0 14 13" fill="none" xmlns="http://www.w3.org/2000/svg">
<g id="Essential Icons / send" clip-path="url(#clip0_89_112)">
<path id="Vector" fill-rule="evenodd" clip-rule="evenodd" d="M12.4609 0.76669C12.6027 0.908499 12.6508 1.11901 12.5845 1.3083L8.93014 11.7493C8.85943 11.9514 8.67255 12.0898 8.45867 12.0985C8.2448 12.1072 8.04727 11.9845 7.96034 11.7889L5.95368 7.27392L1.43869 5.26726C1.24309 5.18032 1.12037 4.98279 1.1291 4.76892C1.13782 4.55505 1.27622 4.36817 1.47826 4.29746L11.9193 0.643093C12.1086 0.576842 12.3191 0.62488 12.4609 0.76669ZM6.97186 6.99403L8.37965 10.1616L10.8433 3.1226L6.97186 6.99403ZM10.105 2.38431L3.06604 4.84794L6.23357 6.25573L10.105 2.38431Z" fill="white"/>
</g>
<defs>
<clipPath id="clip0_89_112">
<rect width="12.5293" height="12.5293" fill="white" transform="translate(0.606445 0.0917969)"/>
</clipPath>
</defs>
</svg>
